<svg width="29" height="30" viewBox="0 0 29 30" fill="none" xmlns="http://www.w3.org/2000/svg">
<path fill-rule="evenodd" clip-rule="evenodd" d="M19.4937 25.7741C19.4541 25.7141 19.4317 25.6797 19.4317 25.6797L14.4361 26.0023L9.2258 25.6862C9.2258 25.6862 9.20865 25.7117 9.17883 25.7571C9.78 27.7845 11.862 29.2799 14.3394 29.2799C16.8093 29.2799 18.8865 27.7927 19.4937 25.7741Z" fill="#FFC7AB"/>
<path fill-rule="evenodd" clip-rule="evenodd" d="M28.4702 14.2182C28.4751 21.8348 22.2564 28.0133 14.5805 28.0185C6.90468 28.023 0.677835 21.8527 0.673343 14.2356C0.668442 6.61896 6.88672 0.440535 14.5626 0.435672C22.2384 0.430809 28.4653 6.60113 28.4702 14.2182Z" fill="#FFC7AB"/>
<path fill-rule="evenodd" clip-rule="evenodd" d="M2.00366 20.1172C3.732 23.7429 7.00613 26.499 10.9823 27.5515C10.9084 23.3754 7.47457 20.0134 3.24928 20.0159C2.82495 20.0163 2.4092 20.0519 2.00366 20.1172Z" fill="#F8B99F"/>
<path fill-rule="evenodd" clip-rule="evenodd" d="M17.8347 27.6321C21.9436 26.651 25.3411 23.8617 27.1221 20.1577C26.6177 20.0552 26.0954 20.0017 25.56 20.0021C21.3057 20.0045 17.8576 23.4167 17.8347 27.6321Z" fill="#F8B99F"/>
<path fill-rule="evenodd" clip-rule="evenodd" d="M28.4702 14.2182C28.4653 6.60113 22.2384 0.430809 14.5626 0.435672C6.88672 0.440535 0.668442 6.61896 0.673343 14.236C0.674976 17.1384 1.58244 19.8297 3.127 22.0504C3.13598 22.0626 3.14497 22.0751 3.15395 22.0877C3.28301 22.2717 3.41615 22.452 3.55378 22.6295C3.57624 22.6583 3.59911 22.6863 3.62157 22.7154C3.74899 22.8763 3.87886 23.0348 4.01322 23.1904C4.0414 23.2228 4.06999 23.2552 4.09817 23.2877C4.23131 23.4392 4.36771 23.5875 4.50779 23.733C4.53638 23.763 4.56497 23.793 4.59356 23.8226C4.60091 23.8299 4.60785 23.8364 4.6152 23.8432C6.67149 21.2343 10.3646 18.9811 14.5805 18.9811C18.7911 18.9811 22.4806 21.2294 24.5381 23.8339C24.6855 23.6832 24.8301 23.5304 24.9706 23.3732C25.0049 23.3347 25.0384 23.2949 25.0723 23.2564C25.1977 23.1126 25.3206 22.9671 25.4398 22.8184C25.4799 22.7693 25.5187 22.7195 25.5575 22.6692C25.6702 22.5258 25.7792 22.3799 25.8862 22.2312C25.9238 22.1793 25.9614 22.1274 25.9981 22.0747C26.1072 21.9187 26.2121 21.7603 26.3146 21.6002C26.3436 21.5548 26.3734 21.5102 26.4024 21.4644C26.525 21.2675 26.6434 21.0669 26.7565 20.863C26.761 20.8545 26.7663 20.846 26.7712 20.8375C26.8942 20.6146 27.0114 20.3881 27.1216 20.1575H27.122H27.1216C27.9866 18.3586 28.4714 16.3445 28.4702 14.2182Z" fill="#3050B9"/>
<path fill-rule="evenodd" clip-rule="evenodd" d="M14.5791 17.1107C9.91555 17.1107 5.79195 19.4385 3.28357 22.2631C3.3726 22.3862 3.46041 22.5094 3.55393 22.6294C3.57639 22.6582 3.59885 22.6865 3.62172 22.7153C3.74874 22.8766 3.87901 23.0346 4.01338 23.1903C4.04115 23.2227 4.07014 23.2551 4.09832 23.2875C4.23146 23.4391 4.36787 23.5874 4.50795 23.7333C4.53654 23.7629 4.56472 23.7929 4.59371 23.8224C4.60065 23.8297 4.60801 23.8366 4.61536 23.8431C6.67164 21.2345 10.3648 18.9809 14.5807 18.9809C18.7909 18.9809 22.4807 21.2293 24.5383 23.8338C24.6857 23.6834 24.8303 23.5303 24.9703 23.373C25.0046 23.3345 25.0381 23.2952 25.072 23.2563C25.1978 23.1129 25.3207 22.967 25.44 22.8182C25.4796 22.7692 25.5188 22.7194 25.5576 22.6695C25.6638 22.5338 25.7671 22.3956 25.868 22.2558C23.3584 19.4344 19.2381 17.1107 14.5791 17.1107Z" fill="white"/>
<path fill-rule="evenodd" clip-rule="evenodd" d="M7.96576 17.0233C4.79251 17.0233 2.82117 15.3934 2.82117 12.7694C2.82117 11.298 3.48971 8.82959 7.96576 8.82959C12.4422 8.82959 13.1108 11.298 13.1108 12.7694C13.1108 15.3934 11.1394 17.0233 7.96576 17.0233Z" fill="white"/>
<path fill-rule="evenodd" clip-rule="evenodd" d="M12.0361 12.7694C12.0361 15.0003 10.2138 15.9571 7.96561 15.9571C5.71778 15.9571 3.89551 15.0003 3.89551 12.7694C3.89551 10.5389 5.71778 9.89575 7.96561 9.89575C10.2138 9.89575 12.0361 10.5389 12.0361 12.7694Z" fill="#FFC7AB"/>
<path fill-rule="evenodd" clip-rule="evenodd" d="M21.8791 17.0233C18.7055 17.0233 16.7341 15.3934 16.7341 12.7694C16.7341 11.298 17.4027 8.82959 21.8791 8.82959C26.3552 8.82959 27.0237 11.298 27.0237 12.7694C27.0237 15.3934 25.0524 17.0233 21.8791 17.0233Z" fill="white"/>
<path fill-rule="evenodd" clip-rule="evenodd" d="M25.9496 12.7694C25.9496 15.0003 24.1269 15.9571 21.8791 15.9571C19.6309 15.9571 17.8086 15.0003 17.8086 12.7694C17.8086 10.5389 19.6309 9.89575 21.8791 9.89575C24.1269 9.89575 25.9496 10.5389 25.9496 12.7694Z" fill="#FFC7AB"/>
<path fill-rule="evenodd" clip-rule="evenodd" d="M14.5755 7.95344C18.7313 7.95344 22.9178 7.18711 25.4899 5.69863C24.892 4.94568 24.2182 4.25554 23.4782 3.64119C21.7559 4.43385 18.7734 5.18194 14.5755 5.18194C10.3731 5.18194 7.38889 4.43264 5.66749 3.63916C4.92706 4.25271 4.25402 4.94285 3.65613 5.69539C6.22781 7.1863 10.4168 7.95344 14.5755 7.95344Z" fill="white"/>
<path fill-rule="evenodd" clip-rule="evenodd" d="M14.6687 1.82127C14.5511 1.82127 14.4561 1.77386 14.4561 1.71469L14.4553 1.07521C14.4553 1.01645 14.5503 0.968628 14.6671 0.968628C14.7846 0.968628 14.8788 1.01645 14.8788 1.0748L14.8804 1.71469C14.8804 1.77345 14.7862 1.82127 14.6687 1.82127ZM14.6719 3.3138C14.5544 3.3138 14.4602 3.26598 14.4602 3.20722L14.4585 2.56774C14.4585 2.50857 14.5527 2.46116 14.6703 2.46075C14.787 2.46075 14.8828 2.50857 14.8828 2.56733L14.8837 3.20682C14.8837 3.26558 14.7886 3.3138 14.6719 3.3138ZM14.6751 4.80593C14.5584 4.80593 14.4634 4.75851 14.4634 4.69975L14.4618 4.05987C14.4618 4.0011 14.556 3.95369 14.6727 3.95329H14.6735C14.7895 3.95329 14.8853 4.0011 14.8853 4.05946L14.8869 4.69935C14.8869 4.75811 14.7919 4.80593 14.6759 4.80593H14.6751ZM14.6783 6.29846C14.5608 6.29846 14.4658 6.25105 14.4658 6.19188L14.465 5.5524C14.465 5.49364 14.5592 5.44541 14.6767 5.44541C14.7935 5.44541 14.8885 5.49364 14.8885 5.55199L14.8893 6.19147C14.8893 6.25064 14.7951 6.29846 14.6783 6.29846ZM14.6816 7.79059C14.564 7.79059 14.4698 7.74317 14.4698 7.68441L14.4682 7.04493C14.4682 6.98576 14.5632 6.93794 14.68 6.93794C14.7967 6.93794 14.8917 6.98576 14.8917 7.04452L14.8925 7.68401C14.8925 7.74277 14.7983 7.79059 14.6824 7.79059H14.6816ZM14.6848 9.28312C14.5672 9.28312 14.4722 9.2357 14.4722 9.17654L14.4714 8.53705C14.4714 8.47829 14.5656 8.43047 14.6832 8.43047C14.7999 8.43047 14.8941 8.47829 14.8941 8.53665L14.8957 9.17613C14.8957 9.2353 14.8015 9.28312 14.6848 9.28312ZM14.6872 10.7756C14.5705 10.7756 14.4763 10.7282 14.4763 10.6691L14.4746 10.0296C14.4746 9.97042 14.5688 9.9226 14.6856 9.9226C14.8031 9.9226 14.8981 9.97042 14.8981 10.0292L14.8989 10.6687C14.8989 10.7278 14.8047 10.7756 14.6872 10.7756ZM14.6904 12.2678C14.5745 12.2678 14.4795 12.22 14.4795 12.1616L14.4779 11.5217C14.4779 11.463 14.5721 11.4151 14.688 11.4151H14.6888C14.8056 11.4151 14.9006 11.463 14.9006 11.5217L14.903 12.1612C14.903 12.22 14.808 12.2678 14.6912 12.2678H14.6904ZM14.6936 13.7603C14.5769 13.7603 14.4819 13.7129 14.4819 13.6537L14.4811 13.0142C14.4811 12.9555 14.5753 12.9073 14.692 12.9073C14.8096 12.9073 14.9046 12.9555 14.9046 13.0138L14.9054 13.6533C14.9054 13.7125 14.8112 13.7603 14.6936 13.7603ZM14.6969 15.2528C14.5801 15.2528 14.4851 15.2046 14.4851 15.1463L14.4843 14.5068C14.4843 14.4476 14.5793 14.3998 14.6953 14.3998C14.8128 14.3998 14.9078 14.4476 14.9078 14.5064L14.9086 15.1459C14.9086 15.2046 14.8144 15.2528 14.6969 15.2528ZM14.7001 16.745C14.5841 16.745 14.4883 16.6971 14.4883 16.6384L14.4867 15.9989C14.4867 15.9401 14.5817 15.8923 14.6977 15.8923H14.6985C14.8152 15.8923 14.9102 15.9397 14.9102 15.9985L14.9126 16.6384C14.9126 16.6971 14.8176 16.745 14.7009 16.745H14.7001ZM14.7025 17.8083C14.5849 17.8083 14.4899 17.7609 14.4899 17.7022V17.4914C14.4899 17.4323 14.5849 17.3844 14.7017 17.3844C14.8192 17.3844 14.9142 17.4323 14.9142 17.491V17.7022C14.9142 17.7609 14.8192 17.8083 14.7025 17.8083Z" fill="white"/>
<path fill-rule="evenodd" clip-rule="evenodd" d="M5.9177 14.885C5.8736 14.885 5.82867 14.8785 5.78416 14.866C5.53381 14.793 5.39005 14.5329 5.46356 14.284C5.69268 13.5068 6.54704 10.9687 7.90456 10.9679C9.3315 10.9671 9.91266 13.5809 10.0148 14.1049C10.0642 14.359 9.89673 14.605 9.64025 14.654C9.38296 14.7047 9.13629 14.5369 9.08687 14.2832C8.86716 13.1607 8.315 11.9052 7.90497 11.9056C7.47288 11.906 6.73858 13.3009 6.37021 14.5475C6.31017 14.7521 6.1219 14.8846 5.9177 14.885Z" fill="#2C2E40"/>
<path fill-rule="evenodd" clip-rule="evenodd" d="M23.8382 14.8835C23.634 14.8839 23.4457 14.7518 23.3849 14.5471C23.014 13.301 22.2781 11.9069 21.8468 11.9074C21.4352 11.9074 20.8855 13.1632 20.6682 14.2854C20.6192 14.5398 20.3729 14.7068 20.1152 14.6578C19.8588 14.6087 19.6909 14.3636 19.7403 14.1091C19.8412 13.5847 20.4191 10.9704 21.8464 10.9696C23.2035 10.9684 24.0612 13.5052 24.2915 14.2825C24.3654 14.5309 24.2217 14.7911 23.9713 14.8645C23.9272 14.8774 23.8823 14.8835 23.8382 14.8835Z" fill="#2C2E40"/>
<path fill-rule="evenodd" clip-rule="evenodd" d="M12.4919 21.2842C12.6185 21.4083 13.965 22.8092 15.7003 21.8492C17.3968 20.9106 18.0213 20.105 19.3236 20.9313C20.5864 21.7329 19.0578 26.745 14.4572 26.6011C11.9426 26.5229 10.1686 24.0318 10.1865 22.4193C10.2008 21.1914 10.5794 19.4112 12.4919 21.2842Z" fill="#B5262D"/>
<path fill-rule="evenodd" clip-rule="evenodd" d="M13.0519 26.2926C13.4856 26.4733 13.9561 26.586 14.4568 26.6014C16.7573 26.6731 18.2896 25.4561 19.0888 24.1208C14.9048 23.562 13.3925 25.6579 13.0519 26.2926Z" fill="#FF7173"/>
</svg>
