<svg width="19" height="19" viewBox="0 0 19 19" fill="none" xmlns="http://www.w3.org/2000/svg">
<mask id="mask0_13_1732" style="mask-type:luminance" maskUnits="userSpaceOnUse" x="0" y="0" width="19" height="19">
<path fill-rule="evenodd" clip-rule="evenodd" d="M0 0.234741H18.9133V18.9143H0V0.234741Z" fill="white"/>
</mask>
<g mask="url(#mask0_13_1732)">
<path fill-rule="evenodd" clip-rule="evenodd" d="M0 9.57453C0 4.41638 4.23391 0.234741 9.45654 0.234741C14.6794 0.234741 18.9133 4.41638 18.9133 9.57453C18.9133 14.7327 14.6794 18.9143 9.45654 18.9143C4.23391 18.9143 0 14.7327 0 9.57453Z" fill="#FFD715"/>
</g>
<path fill-rule="evenodd" clip-rule="evenodd" d="M1.43091 9.57458C1.43091 5.19684 5.02405 1.64783 9.45651 1.64783C13.8892 1.64783 17.4823 5.19684 17.4823 9.57458C17.4823 13.9523 13.8892 17.5013 9.45651 17.5013C5.02405 17.5013 1.43091 13.9523 1.43091 9.57458Z" fill="#FFCC01"/>
<path fill-rule="evenodd" clip-rule="evenodd" d="M13.6557 2.8092C14.4548 4.04162 14.9182 5.50674 14.9182 7.07881C14.9182 11.4566 11.3251 15.0053 6.89237 15.0053C5.35313 15.0053 3.91507 14.577 2.6936 13.8348C4.12003 16.0341 6.61592 17.492 9.45665 17.492C13.8891 17.492 17.4823 13.943 17.4823 9.56523C17.4823 6.70772 15.9513 4.20394 13.6557 2.8092Z" fill="#FCBD11"/>
<path fill-rule="evenodd" clip-rule="evenodd" d="M2.83682 10.2998C2.83682 6.43526 6.00863 3.30261 9.92145 3.30261C12.2086 3.30261 14.242 4.37318 15.5374 6.03439C14.314 3.93688 12.0212 2.52478 9.3942 2.52478C5.48138 2.52478 2.30957 5.65743 2.30957 9.52194C2.30957 11.1273 2.85748 12.6065 3.77827 13.7873C3.1793 12.7606 2.83682 11.5697 2.83682 10.2998Z" fill="#FFDB53"/>
</svg>
