<svg width="27" height="29" viewBox="0 0 27 29" fill="none" xmlns="http://www.w3.org/2000/svg">
<path fill-rule="evenodd" clip-rule="evenodd" d="M10.0866 0.490255C4.35489 1.59335 -0.615605 7.16628 0.0620819 14.5853C0.739769 22.0047 6.85865 31.0451 20.6023 28.5915C26.3108 27.2717 25.7792 21.2186 25.5096 18.234C25.2403 15.2497 27.6082 10.0216 24.188 5.00675C20.7681 -0.0078654 14.1233 -0.286746 10.0866 0.490255Z" fill="#EE413C"/>
<path fill-rule="evenodd" clip-rule="evenodd" d="M4.98056 12.8475C2.02901 14.2932 2.05449 20.4 5.73422 22.3838C9.41424 24.3675 14.7533 23.2346 15.6311 21.6571C16.9547 19.2775 13.8574 14.9076 10.8306 13.3495C8.26834 12.0307 6.47514 12.1152 4.98056 12.8475Z" fill="#FFD91D"/>
<path fill-rule="evenodd" clip-rule="evenodd" d="M6.52577 14.7055C4.28325 15.8003 4.28085 19.9336 7.07682 21.4355C9.87309 22.9376 13.476 22.1235 14.1214 20.9181C14.8763 19.5087 13.2707 16.2654 10.9707 15.0856C9.02391 14.0869 7.6614 14.1513 6.52577 14.7055Z" fill="#F3DFA2"/>
<path fill-rule="evenodd" clip-rule="evenodd" d="M25.615 18.1586C25.4351 16.141 26.423 13.1168 26.1022 9.81789C25.4644 8.76567 24.3643 8.34642 22.6349 9.21642C20.7887 10.1452 17.5473 13.9466 19.3213 18.6743C19.9701 20.4036 23.3929 20.9938 25.2877 19.0587C25.4134 18.9301 25.5348 18.7642 25.6511 18.5705C25.639 18.4285 25.6268 18.2896 25.615 18.1586Z" fill="#FFD91D"/>
<path fill-rule="evenodd" clip-rule="evenodd" d="M22.1555 11.0756C20.7499 11.7535 18.7184 14.3564 20.0689 17.8066C20.5631 19.0685 22.7325 19.6706 24.175 18.2582C25.6688 16.7958 26.412 9.02278 22.1555 11.0756Z" fill="#F3DFA2"/>
<path fill-rule="evenodd" clip-rule="evenodd" d="M13.0732 20.5084C12.2766 18.9477 9.82476 17.996 8.24347 19.2644C8.09999 19.3792 8.20434 19.6474 8.41576 19.5918C9.23144 19.3778 10.021 19.1426 10.8752 19.3271C11.7079 19.507 12.3959 19.9962 12.8776 20.6218C12.9549 20.7221 13.1272 20.6144 13.0732 20.5084Z" fill="#1B122E"/>
<path fill-rule="evenodd" clip-rule="evenodd" d="M21.5689 18.1382C21.804 16.6212 22.6453 15.6263 23.664 14.5914C23.7862 14.4669 23.6643 14.2454 23.4983 14.3234C22.1154 14.972 21.3945 16.6135 21.2613 18.1106C21.2428 18.3188 21.5376 18.3401 21.5689 18.1382Z" fill="#1B122E"/>
<path fill-rule="evenodd" clip-rule="evenodd" d="M21.0038 11.925C20.4809 11.9713 20.0436 12.555 19.7571 12.9618C19.3762 13.5026 19.0299 14.132 19.33 14.7935C19.4219 14.9964 19.6679 15.1457 19.8852 15.0895C20.564 14.9133 20.8139 14.3016 21.0174 13.6549C21.1696 13.171 21.393 12.4971 21.1588 12.0078C21.1281 11.9435 21.0689 11.9192 21.0038 11.925Z" fill="#1B122E"/>
<path fill-rule="evenodd" clip-rule="evenodd" d="M9.82715 15.997C10.0641 16.4502 10.779 16.682 11.2858 16.848C11.9764 17.074 12.6546 17.2503 13.2909 16.8435C13.4931 16.714 13.5437 16.4454 13.4394 16.2571C13.1027 15.6484 12.3571 15.5441 11.6345 15.5101C11.0873 15.4846 10.2808 15.4699 9.86845 15.8335C9.81721 15.8787 9.79578 15.9372 9.82715 15.997Z" fill="#1B122E"/>
<path fill-rule="evenodd" clip-rule="evenodd" d="M20.8476 20.6811C20.9727 20.3548 18.0824 15.962 17.0962 16.3129C16.289 16.6008 15.659 22.182 16.0798 22.2503" fill="#FFD91D"/>
<path fill-rule="evenodd" clip-rule="evenodd" d="M18.7236 22.246C16.8205 22.7897 13.6385 23.6977 14.4358 25.8396C15.1223 27.6831 18.7175 26.98 20.0181 26.2805C21.1912 25.6499 24.0148 24.8712 23.6875 22.6383C23.3599 20.4055 19.6925 21.9694 18.7236 22.246Z" fill="#FFD91D"/>
<path fill-rule="evenodd" clip-rule="evenodd" d="M18.9906 22.8713C17.5011 23.2984 15.011 24.0119 15.6348 25.6946C16.1721 27.1429 18.9858 26.5907 20.0037 26.0409C20.922 25.5455 23.1315 24.9336 22.8754 23.1791C22.6192 21.4249 19.749 22.6537 18.9906 22.8713Z" fill="#F3DFA2"/>
<path fill-rule="evenodd" clip-rule="evenodd" d="M17.6262 16.7047C17.0207 16.9153 16.5484 21.0069 16.8639 21.0569C17.1794 21.1067 20.3458 20.1455 20.4398 19.9065C20.5335 19.6675 18.3656 16.4474 17.6262 16.7047Z" fill="#F3DFA2"/>
<path fill-rule="evenodd" clip-rule="evenodd" d="M19.3106 23.6941C18.7602 23.8371 16.8399 23.5919 16.4816 24.1692C16.1232 24.7463 16.3117 26.0296 19.8678 25.0992C23.424 24.1684 22.5572 22.7553 21.8532 22.6538C21.1492 22.5524 19.3106 23.6941 19.3106 23.6941Z" fill="white"/>
<path fill-rule="evenodd" clip-rule="evenodd" d="M17.9896 23.8456C18.0759 24.3713 18.1772 24.9166 18.3516 25.4276C18.4954 25.4103 18.6464 25.3889 18.8073 25.3621C18.6754 24.8537 18.5119 24.3487 18.3785 23.839C18.2534 23.8406 18.1228 23.8427 17.9896 23.8456Z" fill="#1B122E"/>
<path fill-rule="evenodd" clip-rule="evenodd" d="M20.0339 23.2373C20.2837 23.8417 20.5318 24.4642 20.8582 25.0303C21.0043 24.9713 21.1365 24.9117 21.2605 24.8514C21.0487 24.2375 20.7321 23.6367 20.442 23.0446C20.3034 23.1063 20.1665 23.1712 20.0339 23.2373Z" fill="#1B122E"/>
<path fill-rule="evenodd" clip-rule="evenodd" d="M16.5587 10.9493C16.5828 10.9493 16.5828 10.9132 16.5587 10.9132C16.5346 10.9132 16.5346 10.9493 16.5587 10.9493Z" fill="#FFD91D"/>
<path fill-rule="evenodd" clip-rule="evenodd" d="M5.5629 8.95439C5.16983 8.6445 4.52519 8.69592 4.15511 9.0148C3.57098 9.51842 3.52225 10.4008 4.02482 10.9836C4.34782 11.3582 4.79536 11.6844 5.31189 11.4456C5.62531 11.3011 5.89931 10.9199 6.02632 10.6018C6.27377 9.98286 6.07806 9.36061 5.5629 8.95439Z" fill="#FFD91D"/>
<path fill-rule="evenodd" clip-rule="evenodd" d="M1.42071 11.1654C0.776204 11.3187 0.297335 11.9455 0.431618 12.6429C0.607795 13.5571 1.4823 14.049 2.34266 13.8755C3.11506 13.7193 3.44994 12.9095 3.17693 12.1971C2.90864 11.4974 2.16565 10.9881 1.42071 11.1654Z" fill="#FFD91D"/>
<path fill-rule="evenodd" clip-rule="evenodd" d="M1.80245 16.7261C2.23099 16.4051 2.04431 15.9109 1.59791 15.7089C1.65083 15.7323 1.64012 15.7261 1.56577 15.6903C1.47909 15.6426 1.38883 15.5997 1.29566 15.5619C1.11157 15.5027 0.819383 15.4818 0.626861 15.5131C0.477342 15.5372 0.207031 15.6903 0.207031 15.6903C0.207031 15.6903 0.251872 16.0051 0.312838 16.3131C0.383507 16.67 0.471739 17.0273 0.471739 17.0273C0.471739 17.0273 0.794955 17.0963 0.962881 17.0835C1.30377 17.0573 1.55116 16.9142 1.80245 16.7261Z" fill="#FFD91D"/>
<path fill-rule="evenodd" clip-rule="evenodd" d="M22.9906 5.03929C22.201 5.65764 22.4098 6.81328 23.1343 7.36994C23.4042 7.57734 23.8249 7.61757 24.1252 7.45606C24.5154 7.24627 24.8222 6.85023 24.9402 6.41843C24.7195 5.89753 24.4537 5.37603 24.1352 4.85632C23.7646 4.71239 23.3574 4.75232 22.9906 5.03929Z" fill="#FFD91D"/>
<path fill-rule="evenodd" clip-rule="evenodd" d="M10.3188 5.479C11.4239 6.18674 12.0065 7.21468 12.1566 8.47259C12.2611 9.34637 12.0382 10.5293 12.4375 11.3397C12.7286 11.9306 13.4758 12.1827 13.8988 11.5714C13.9065 11.5607 13.8944 11.5474 13.8819 11.5522C12.9722 11.9196 13.1916 9.18598 13.1859 8.86974C13.1741 8.21122 13.1184 7.55242 12.8964 6.92446C12.5121 5.83825 11.6841 4.9325 10.6767 4.32406C9.57574 3.65903 8.26073 3.34675 6.97208 3.25736C6.17869 3.20192 5.27459 3.26472 4.4368 3.18665C4.0259 3.55918 3.63631 3.96114 3.271 4.39053C3.41339 4.43324 3.55786 4.47086 3.70351 4.49943C5.96436 4.94269 8.23172 4.14245 10.3188 5.479Z" fill="#FFD91D"/>
<path fill-rule="evenodd" clip-rule="evenodd" d="M14.3842 4.16409C14.1913 5.30441 14.3673 6.49701 15.0015 7.49409C15.3075 7.97552 15.71 8.37519 16.1449 8.75455C16.5149 9.07773 18.8213 10.5576 17.9267 11.1067C17.9166 11.1128 17.9231 11.1289 17.9344 11.1292C18.8992 11.1584 19.0085 10.2784 18.5351 9.64622C17.9981 8.92949 17.1515 8.43916 16.5436 7.7775C15.6292 6.78264 15.3158 5.62814 15.5984 4.3407C15.9343 2.81018 16.9785 1.83062 17.9542 0.767345C17.4127 0.615767 16.8656 0.495616 16.3188 0.406616C16.3058 0.421635 16.2921 0.436932 16.2794 0.451951C15.3644 1.53108 14.6173 2.78654 14.3842 4.16409Z" fill="#FFD91D"/>
<path fill-rule="evenodd" clip-rule="evenodd" d="M13.086 1.58034C13.0781 1.58954 13.0907 1.60136 13.1002 1.59716C13.8528 1.27472 14.0814 0.723129 14.3101 0.0314735C14.058 0.0178086 13.8087 0.0109761 13.5614 0.00939941C13.5966 0.550741 13.5212 1.07763 13.086 1.58034Z" fill="#FFD91D"/>
<path fill-rule="evenodd" clip-rule="evenodd" d="M17.2689 6.3518C17.2816 6.36933 17.3184 6.36906 17.3194 6.34371C17.3556 5.32955 17.2358 4.41061 17.7065 3.44339C18.11 2.61373 18.8294 1.9869 19.625 1.43639C19.4188 1.35224 19.2101 1.27483 18.9998 1.20093C17.1909 2.27199 16.0512 4.64123 17.2689 6.3518Z" fill="#FFD91D"/>
<path fill-rule="evenodd" clip-rule="evenodd" d="M2.61414 7.04025C4.45004 7.16129 7.85837 5.74554 9.0716 7.48591C9.19357 7.66072 9.47864 7.47239 9.38527 7.28694C8.82592 6.17826 7.72706 5.92783 6.55088 5.84416C5.44998 5.76596 3.69345 5.93301 2.37225 5.56958C2.10614 5.98994 1.85871 6.42783 1.6355 6.8847C1.93983 6.97038 2.27509 7.01782 2.61414 7.04025Z" fill="#FFD91D"/>
<path fill-rule="evenodd" clip-rule="evenodd" d="M0.917236 8.30869C1.14083 8.01536 1.28059 8.1706 1.52805 7.8991C3.93338 5.26164 7.21983 3.36058 10.79 2.54104C14.3604 1.72151 18.1977 1.98713 21.6053 3.29033C22.4236 3.60325 22.9686 3.92837 23.7136 4.37816C20.1998 -0.23453 14.0973 -0.420259 10.1864 0.341059C6.07093 1.1424 2.44763 3.83259 0.917236 8.30869Z" fill="#EE413C"/>
<path opacity="0.01" fill-rule="evenodd" clip-rule="evenodd" d="M5.31519 25.1762C8.66448 28.1174 13.7162 29.8298 20.7629 28.5983C24.3173 27.7936 25.4639 25.2018 25.7579 22.6475C23.5094 25.8454 21.7756 26.8215 17.1482 27.2002C11.5664 27.6577 9.05042 26.2939 5.31519 25.1762Z" fill="#CCCCCC"/>
</svg>
