<svg width="216" height="89" viewBox="0 0 216 89" fill="none" xmlns="http://www.w3.org/2000/svg">
<mask id="mask0_80_869" style="mask-type:luminance" maskUnits="userSpaceOnUse" x="21" y="56" width="70" height="33">
<path fill-rule="evenodd" clip-rule="evenodd" d="M21.8347 88.7196L21.8347 56.5873L90.0673 56.5873V88.7196H21.8347Z" fill="white"/>
</mask>
<g mask="url(#mask0_80_869)">
<path fill-rule="evenodd" clip-rule="evenodd" d="M84.8413 78.8986L85.3785 78.5416C90.7136 74.3409 91.6326 66.6096 87.4302 61.2749C83.2298 55.9402 75.4996 55.0237 70.1663 59.2229L56.5783 69.9254L39.4808 61.6613C33.3689 58.7056 26.0171 61.2676 23.0625 67.3817C20.1082 73.4966 22.6682 80.848 28.7813 83.8015H28.7815C47.087 91.8013 68.2019 89.9545 84.8413 78.8986Z" fill="#EA9975"/>
</g>
<path fill-rule="evenodd" clip-rule="evenodd" d="M107.734 43.2075C108.407 20.4204 90.4832 1.40199 67.6959 0.729515L55.6829 0.116661C32.8959 -0.553162 13.8817 17.3716 13.2109 40.1616C12.5385 62.9486 30.4621 81.9661 53.2494 82.6386L65.2607 83.2498C88.0494 83.9222 107.064 65.9939 107.734 43.2075Z" fill="#FBC399"/>
<path fill-rule="evenodd" clip-rule="evenodd" d="M95.8951 61.5444L328.015 74.3374C341.594 74.3374 352.604 50.5351 352.604 36.9537C352.604 23.3723 341.594 5.84584 328.015 5.84584L95.8951 12.3631C82.3144 12.3631 71.3064 23.3723 71.3064 36.9537C71.3064 50.5351 82.3144 61.5444 95.8951 61.5444Z" fill="#FBC399"/>
<path fill-rule="evenodd" clip-rule="evenodd" d="M45.9176 73.5269L57.9286 74.1381C72.0201 74.5535 84.6605 67.8523 92.4194 57.2918C94.6461 54.2608 98.2785 52.5909 102.033 52.8041L320.683 65.2256C334.262 65.2256 345.27 34.9061 345.27 21.3247C345.27 17.6027 344.42 14.0877 342.94 10.9257C348.806 15.4209 352.604 28.9931 352.604 36.9537C352.604 50.5351 341.594 74.3374 328.015 74.3374L106.965 61.7795C104.516 61.6405 102.19 62.8249 100.829 64.8665C93.1968 76.3093 80.0242 83.6848 65.2608 83.2498L53.2496 82.6387C38.5854 82.2064 25.9459 74.1709 18.9702 62.4288C26.05 69.0464 35.4686 73.2189 45.9176 73.5269Z" fill="#EA9975"/>
<path fill-rule="evenodd" clip-rule="evenodd" d="M46.7289 70.7357C52.0803 70.7357 56.4251 66.4042 56.4396 61.0482C56.4524 55.6843 52.1168 51.3243 46.7525 51.3098L13.783 51.222H13.7576C8.40592 51.222 4.05946 55.5537 4.04642 60.9094C4.03194 66.2726 8.36779 70.6334 13.7318 70.6478L46.7014 70.7357H46.7289Z" fill="#FBC399"/>
<path fill-rule="evenodd" clip-rule="evenodd" d="M13.7318 66.5228C13.7318 66.5228 52.0803 70.7358 46.7289 70.7358H46.7011L13.7318 70.6479C8.36755 70.6332 4.03194 66.2725 4.04642 60.9093C4.04835 60.2086 4.12703 59.5262 4.26943 58.8684C5.21407 63.2328 9.08363 66.51 13.7318 66.5228Z" fill="#EA9975"/>
<mask id="mask1_80_869" style="mask-type:luminance" maskUnits="userSpaceOnUse" x="0" y="34" width="55" height="21">
<path fill-rule="evenodd" clip-rule="evenodd" d="M0.348633 54.0855L0.348633 34.571H54.5686V54.0855H0.348633Z" fill="white"/>
</mask>
<g mask="url(#mask1_80_869)">
<path fill-rule="evenodd" clip-rule="evenodd" d="M44.8579 54.0855C50.2093 54.0855 54.5541 49.753 54.5686 44.3961C54.5814 39.0322 50.2439 34.6724 44.8815 34.6586L10.0849 34.571H10.0613C4.70816 34.571 0.363139 38.9035 0.348417 44.2592C0.335625 49.6241 4.67316 53.9831 10.0357 53.9969L44.8323 54.0855H44.8579Z" fill="#FBC399"/>
</g>
<mask id="mask2_80_869" style="mask-type:luminance" maskUnits="userSpaceOnUse" x="0" y="42" width="46" height="13">
<path fill-rule="evenodd" clip-rule="evenodd" d="M0.348633 54.0854L0.348633 42.4319H45.3487V54.0854H0.348633Z" fill="white"/>
</mask>
<g mask="url(#mask2_80_869)">
<path fill-rule="evenodd" clip-rule="evenodd" d="M10.0357 50.281C10.0357 50.281 50.2093 54.0854 44.8579 54.0854H44.8323L10.0357 53.9968C4.67316 53.983 0.335866 49.624 0.348416 44.2591C0.350347 43.6342 0.416235 43.024 0.531359 42.4319C1.39925 46.8942 5.31829 50.2692 10.0357 50.281Z" fill="#EA9975"/>
</g>
<path fill-rule="evenodd" clip-rule="evenodd" d="M11.2598 36.4513H11.2852L45.817 36.3617C51.1812 36.347 55.5168 31.9872 55.504 26.6231C55.4896 21.2674 51.1429 16.9358 45.7933 16.9358H45.7658L11.2359 17.0254C5.87168 17.0399 1.53438 21.3999 1.54886 26.7638C1.56335 32.1197 5.90836 36.4513 11.2598 36.4513Z" fill="#FBC399"/>
<path fill-rule="evenodd" clip-rule="evenodd" d="M11.2598 32.9109H11.2852C11.2852 32.9109 51.1812 36.3469 45.817 36.3616L11.2852 36.4512H11.2598C5.90836 36.4512 1.56334 32.1196 1.54886 26.7639C1.54717 26.1479 1.6092 25.5479 1.71708 24.963C2.54829 29.4855 6.50401 32.9109 11.2598 32.9109Z" fill="#EA9975"/>
<path fill-rule="evenodd" clip-rule="evenodd" d="M16.3118 19.6137H16.3371L50.8673 19.5242C56.2313 19.5095 60.5688 15.1497 60.5541 9.78554C60.5396 4.42984 56.1948 0.0983047 50.8434 0.0983047H50.8178L16.2862 0.187857C10.922 0.202339 6.58636 4.56236 6.59915 9.92626C6.61363 15.2822 10.9601 19.6137 16.3118 19.6137Z" fill="#FBC399"/>
<path fill-rule="evenodd" clip-rule="evenodd" d="M16.3118 16.0743H16.3371C16.3371 16.0743 56.2313 19.5096 50.8673 19.5241L16.3371 19.6138H16.3118C10.9601 19.6138 6.61365 15.2821 6.59916 9.92637C6.59723 9.31061 6.6595 8.71031 6.76907 8.12545C7.60028 12.6482 11.5541 16.0743 16.3118 16.0743Z" fill="#EA9975"/>
<path d="M108.762 28.314L114.142 24.799" stroke="#EA9975" stroke-width="1.449" stroke-linecap="round"/>
<path d="M100.419 44.9323L106.743 46.0747" stroke="#EA9975" stroke-width="1.449" stroke-linecap="round"/>
<path d="M117.489 38.1436L123.855 37.2689" stroke="#EA9975" stroke-width="1.449" stroke-linecap="round"/>
<path d="M99.187 20.3066L105.554 19.4319" stroke="#EA9975" stroke-width="1.449" stroke-linecap="round"/>
<path d="M160.122 27.3681L166.489 26.4934" stroke="#EA9975" stroke-width="1.449" stroke-linecap="round"/>
<path d="M182.097 24.9242L188.248 23.0627" stroke="#EA9975" stroke-width="1.449" stroke-linecap="round"/>
<path d="M171.027 16.2165L177.394 15.3418" stroke="#EA9975" stroke-width="1.449" stroke-linecap="round"/>
<path d="M139.379 32.2485L145.659 33.613" stroke="#EA9975" stroke-width="1.449" stroke-linecap="round"/>
<path d="M172.3 37.3025L178.58 38.667" stroke="#EA9975" stroke-width="1.449" stroke-linecap="round"/>
<path d="M210.536 47.1786L216.816 48.5431" stroke="#EA9975" stroke-width="1.449" stroke-linecap="round"/>
<path d="M194.536 33.7193L200.929 33.0695" stroke="#EA9975" stroke-width="1.449" stroke-linecap="round"/>
<path d="M125.112 47.7489L130.44 51.3414" stroke="#EA9975" stroke-width="1.449" stroke-linecap="round"/>
<path d="M116.079 56.2806L121.408 59.873" stroke="#EA9975" stroke-width="1.449" stroke-linecap="round"/>
<path d="M155.939 45.8617L161.872 48.3318" stroke="#EA9975" stroke-width="1.449" stroke-linecap="round"/>
<path d="M176.137 50.2321L181.832 53.21" stroke="#EA9975" stroke-width="1.449" stroke-linecap="round"/>
<path d="M139.627 44.8933L144.956 48.4857" stroke="#EA9975" stroke-width="1.449" stroke-linecap="round"/>
<path d="M192.745 47.8842L198.074 51.4766" stroke="#EA9975" stroke-width="1.449" stroke-linecap="round"/>
<path d="M196.602 61.249L201.931 64.8414" stroke="#EA9975" stroke-width="1.449" stroke-linecap="round"/>
<path d="M140.537 57.8458L144.037 63.236" stroke="#EA9975" stroke-width="1.449" stroke-linecap="round"/>
<path d="M127.569 22.5714L133.242 19.5511" stroke="#EA9975" stroke-width="1.449" stroke-linecap="round"/>
<path d="M148.691 20.9331L154.364 17.9127" stroke="#EA9975" stroke-width="1.449" stroke-linecap="round"/>
<path d="M202.606 21.3794L208.278 18.359" stroke="#EA9975" stroke-width="1.449" stroke-linecap="round"/>
</svg>
