<svg width="234" height="84" viewBox="0 0 234 84" fill="none" xmlns="http://www.w3.org/2000/svg">
<path fill-rule="evenodd" clip-rule="evenodd" d="M103.96 9.28708L103.455 9.62157C98.4369 13.5574 97.5724 20.8011 101.525 25.7994C105.476 30.7979 112.748 31.6564 117.764 27.7222L130.545 17.6947L146.628 25.4376C152.377 28.2066 159.293 25.8064 162.072 20.0779C164.851 14.3485 162.443 7.46087 156.692 4.6934C139.474 -2.80165 119.612 -1.07132 103.96 9.28708Z" fill="#F2BCA7"/>
<path fill-rule="evenodd" clip-rule="evenodd" d="M82.4263 42.7275C81.7938 64.0776 98.6536 81.8966 120.088 82.5265L131.388 83.1012C152.822 83.7285 170.708 66.9341 171.338 45.5814C171.971 24.2313 155.111 6.41316 133.677 5.78309L122.379 5.21046C100.943 4.58039 83.057 21.3781 82.4263 42.7275Z" fill="#FCD9C3"/>
<mask id="mask0_80_911" style="mask-type:luminance" maskUnits="userSpaceOnUse" x="-148" y="13" width="265" height="65">
<path fill-rule="evenodd" clip-rule="evenodd" d="M116.692 13.5608L116.692 77.733L-147.906 77.733V13.5608L116.692 13.5608Z" fill="white"/>
</mask>
<g mask="url(#mask0_80_911)">
<path fill-rule="evenodd" clip-rule="evenodd" d="M93.5627 25.547L-124.777 13.5608C-137.55 13.5608 -147.906 35.862 -147.906 48.5869C-147.906 61.3118 -137.55 77.733 -124.777 77.733L93.5627 71.6268C106.337 71.6268 116.692 61.3118 116.692 48.5869C116.692 35.862 106.337 25.547 93.5627 25.547Z" fill="#FCD9C3"/>
</g>
<mask id="mask1_80_911" style="mask-type:luminance" maskUnits="userSpaceOnUse" x="-148" y="5" width="282" height="68">
<path fill-rule="evenodd" clip-rule="evenodd" d="M133.677 5.01408V72.9736L-147.906 72.9736V5.01408L133.677 5.01408Z" fill="white"/>
</mask>
<g mask="url(#mask1_80_911)">
<path fill-rule="evenodd" clip-rule="evenodd" d="M90.8548 28.3634C89.131 31.4409 85.3434 32.7678 81.8116 32.5679L-117.88 22.0977C-130.653 22.0977 -141.007 50.5054 -141.007 63.2303C-141.007 66.7177 -140.208 70.0107 -138.816 72.9736C-144.333 68.7619 -147.906 56.0454 -147.906 48.587C-147.906 35.862 -137.55 13.5608 -124.777 13.5608L83.1501 25.3266C85.4544 25.457 87.642 24.3473 88.9224 22.4345C96.101 11.7131 108.35 2.19982 133.677 5.78304C133.677 5.78304 105.619 2.0008 90.8548 28.3634Z" fill="#F2BCA7"/>
</g>
<path fill-rule="evenodd" clip-rule="evenodd" d="M143.898 15.6207C138.9 16.2173 135.327 20.732 135.913 25.717C136.501 30.7082 141.04 34.2808 146.05 33.6958L178.558 29.8988C178.565 29.8979 220.709 24.868 220.716 24.8673C225.716 24.2705 229.289 19.7557 228.704 14.7717C228.115 9.77952 223.577 6.20783 218.567 6.79267L143.922 15.6177C143.915 15.6186 143.907 15.6198 143.898 15.6207Z" fill="#FCD9C3"/>
<path fill-rule="evenodd" clip-rule="evenodd" d="M218.982 10.2496C218.982 10.2496 138.9 16.2172 143.898 15.6208C143.907 15.6197 143.916 15.6188 143.922 15.6179L218.567 6.79278C223.577 6.20772 228.115 9.7794 228.703 14.7718C228.772 15.3532 228.779 15.9284 228.737 16.4922C227.428 12.4376 223.39 9.73485 218.982 10.2496Z" fill="#F2BCA7"/>
<path fill-rule="evenodd" clip-rule="evenodd" d="M173.174 49.0577H173.15L140.668 49.1416C135.622 49.1554 131.544 53.2402 131.556 58.2661C131.57 63.284 135.659 67.3424 140.69 67.3424H140.716L173.196 67.2585C178.242 67.2447 182.322 63.1599 182.308 58.1342C182.294 53.1161 178.208 49.0577 173.174 49.0577Z" fill="#FCD9C3"/>
<path fill-rule="evenodd" clip-rule="evenodd" d="M173.136 54.4395C173.127 54.4372 173.144 54.4395 173.136 54.4395C173.136 54.4395 154.915 50.9947 148.026 50.3298L147.558 49.0576L173.15 49.0576H173.174C178.208 49.0576 182.308 53.116 182.308 58.1342C182.308 60.6685 181.672 61.1957 181.57 61.7434C180.788 57.5062 177.558 55.6297 173.136 54.4395Z" fill="#F2BCA7"/>
<path fill-rule="evenodd" clip-rule="evenodd" d="M149.443 32.1829C144.424 31.8002 140.038 35.537 139.64 40.54C139.243 45.5501 142.998 49.9334 148.026 50.3299L180.655 52.9001C180.662 52.9008 222.985 56.1278 222.992 56.1285C228.012 56.5114 232.398 52.7746 232.796 47.7723C233.193 42.7613 229.438 38.3789 224.41 37.9826L149.467 32.1847C149.46 32.184 149.452 32.1835 149.443 32.1829Z" fill="#FCD9C3"/>
<path fill-rule="evenodd" clip-rule="evenodd" d="M168.422 64.8334H168.398L135.918 64.9173C130.872 64.9311 126.792 69.0159 126.806 74.0418C126.82 79.0598 130.906 83.1181 135.94 83.1181H135.964L168.446 83.0342C173.492 83.0204 177.57 78.9356 177.558 73.91C177.544 68.8918 173.456 64.8334 168.422 64.8334Z" fill="#FCD9C3"/>
<path fill-rule="evenodd" clip-rule="evenodd" d="M168.422 68.1497H168.398C168.398 68.1497 139.953 64.931 144.999 64.9174L168.398 64.8333H168.422C173.456 64.8333 177.544 68.8919 177.558 73.9099C177.559 74.4868 177.501 75.0492 177.398 75.5972C176.616 71.3597 172.897 68.1497 168.422 68.1497Z" fill="#F2BCA7"/>
<path fill-rule="evenodd" clip-rule="evenodd" d="M224.143 41.454C224.143 41.454 169.804 33.7581 169.811 33.7585L224.41 37.9825C229.438 38.3789 233.193 42.7614 232.796 47.7723C232.75 48.356 232.644 48.9216 232.494 49.4665C232 45.2355 228.567 41.8025 224.143 41.454Z" fill="#F2BCA7"/>
<path fill-rule="evenodd" clip-rule="evenodd" d="M227.597 20.3286L217.383 21.8239C216.263 21.9933 215.119 21.842 214.083 21.3879C210.978 20.0262 209.708 16.4294 211.052 13.4952C211.298 12.9563 211.645 12.4692 212.042 12.0282C213.244 10.6923 214.902 9.84915 216.693 9.66257L225.151 8.52659L225.736 8.9244C229.518 11.4947 230.367 16.6969 227.597 20.3286Z" fill="#CE4EAA"/>
<path fill-rule="evenodd" clip-rule="evenodd" d="M230.235 53.1387L219.94 52.3602C218.811 52.2804 217.728 51.8821 216.818 51.212C214.089 49.2038 213.645 45.4168 215.603 42.8486C215.962 42.3772 216.408 41.9779 216.893 41.6345C218.36 40.5947 220.163 40.1351 221.952 40.3455L230.453 41.0897L230.936 41.6058C234.058 44.9416 233.738 50.2027 230.235 53.1387Z" fill="#CE4EAA"/>
<path d="M75.01 25.6682C62.9039 1.86275 73.5623 92.4736 86.9591 82.321C88.9508 80.8116 88.7299 73.4787 88.1033 70.8574" stroke="#FFB600" stroke-width="1.3608"/>
<path d="M74.1422 73.3389C74.682 101.461 41.3278 15.1552 57.958 16.2837C60.4305 16.4513 63.6965 23.0603 64.3803 25.7432" stroke="#FFB600" stroke-width="1.3608"/>
</svg>
