<svg width="23" height="31" viewBox="0 0 23 31" fill="none" xmlns="http://www.w3.org/2000/svg">
<path fill-rule="evenodd" clip-rule="evenodd" d="M13.7347 14.6548C13.7136 14.6548 13.6813 14.6528 13.6431 14.6478C12.5451 14.5099 11.588 15.4185 11.588 16.5252V29.0275C11.588 30.0688 12.4334 30.913 13.475 30.913C13.8434 30.913 14.2047 30.8053 14.5126 30.6021L17.86 28.3976C18.1589 28.2004 18.3974 27.9207 18.5433 27.5927L19.2247 26.0704C19.2991 25.9024 19.3494 25.7263 19.3736 25.5452C19.5276 24.361 20.1123 19.7489 19.8456 19.7489C19.5407 19.7489 14.2439 14.6548 13.7347 14.6548Z" fill="#FBC399"/>
<path fill-rule="evenodd" clip-rule="evenodd" d="M9.44174 14.6548C9.46388 14.6548 9.49508 14.6528 9.53333 14.6478C10.6323 14.5099 11.5884 15.4185 11.5884 16.5252V29.0275C11.5884 30.0688 10.744 30.913 9.7024 30.913C9.33305 30.913 8.97175 30.8053 8.66479 30.6021L5.31747 28.3976C5.01756 28.2004 4.78005 27.9207 4.63412 27.5927L3.95278 26.0704C3.8773 25.9024 3.82799 25.7263 3.80383 25.5452C3.64884 24.361 3.06412 19.7489 3.33082 19.7489C3.63576 19.7489 8.9325 14.6548 9.44174 14.6548Z" fill="#FBC399"/>
<path fill-rule="evenodd" clip-rule="evenodd" d="M1.32178 0.889771C0.996706 0.997427 0.128174 16.4979 0.128174 16.4979L3.2722 27.1197L6.41622 21.3747L10.5365 18.9901L11.405 18.7738V2.29836L3.92335 4.46658L1.32178 0.889771Z" fill="#37474F"/>
<path fill-rule="evenodd" clip-rule="evenodd" d="M18.8857 4.46634L11.4041 2.29912V18.7736L12.2716 18.9909L16.3908 21.3754L19.5358 27.1195L22.6809 16.4977C22.6809 16.4977 21.8123 0.998189 21.4873 0.889526L18.8857 4.46634Z" fill="#263238"/>
<path fill-rule="evenodd" clip-rule="evenodd" d="M3.28638 14.6687L4.91274 18.0282L7.83938 19.0041L9.8995 18.3542L7.40058 15.6064L3.28638 14.6687Z" fill="#FBC399"/>
<path fill-rule="evenodd" clip-rule="evenodd" d="M6.35573 16.6799C5.48216 16.4847 4.81089 16.4947 4.85819 16.5642C5.09671 16.9083 5.49323 17.199 5.95014 17.4234C6.32352 17.6045 6.73716 17.7424 7.14274 17.8259C7.7959 17.9677 8.42793 17.9707 8.81439 17.8118C8.34037 17.4194 7.78181 17.1367 7.23734 16.9374C6.9324 16.8288 6.6345 16.7423 6.35573 16.6799Z" fill="white"/>
<path fill-rule="evenodd" clip-rule="evenodd" d="M6.35577 16.6799C6.11323 16.7926 5.94214 17.0391 5.94214 17.3259C5.94214 17.3581 5.94616 17.3913 5.95019 17.4235C6.32357 17.6046 6.7372 17.7424 7.14279 17.8259C7.27362 17.6991 7.35313 17.5211 7.35313 17.3259C7.35313 17.181 7.30985 17.0462 7.23739 16.9375C6.93245 16.8288 6.63455 16.7423 6.35577 16.6799Z" fill="#2C3E50"/>
<path fill-rule="evenodd" clip-rule="evenodd" d="M12.7186 18.3537L14.7787 19.0036L17.7064 18.0287L19.3328 14.6682L15.1089 15.6069L12.7186 18.3537Z" fill="#FBC399"/>
<path fill-rule="evenodd" clip-rule="evenodd" d="M16.2616 16.6799C15.9869 16.7453 15.686 16.8288 15.384 16.9374C14.8406 17.1367 14.278 17.4164 13.803 17.8118C14.1904 17.9707 14.8215 17.9677 15.4787 17.8259C15.8812 17.7424 16.2949 17.6045 16.6682 17.4234C17.1251 17.199 17.5207 16.9083 17.7602 16.5642C17.8105 16.4947 17.1402 16.4847 16.2616 16.6799Z" fill="white"/>
<path fill-rule="evenodd" clip-rule="evenodd" d="M16.2616 16.6799C15.9869 16.7453 15.686 16.8288 15.384 16.9375C15.3126 17.0462 15.2683 17.181 15.2683 17.3259C15.2683 17.5211 15.3478 17.6991 15.4787 17.8259C15.8812 17.7424 16.2948 17.6046 16.6682 17.4235C16.6723 17.3913 16.6753 17.3581 16.6753 17.3259C16.6753 17.0391 16.5052 16.7926 16.2616 16.6799Z" fill="#2C3E50"/>
<path fill-rule="evenodd" clip-rule="evenodd" d="M9.6698 23.0282L11.7601 24.0032L13.5072 22.5875L11.5518 23.2717L9.6698 23.0282Z" fill="#C68D67"/>
<path fill-rule="evenodd" clip-rule="evenodd" d="M8.85703 25.6295L7.71777 26.1578L15.4712 25.3981L14.7465 24.5822L8.85703 25.6295Z" fill="#C68D67"/>
<path fill-rule="evenodd" clip-rule="evenodd" d="M10.5642 27.5804L12.9635 27.4586L14.2013 26.3951L10.1989 27.0119L10.5642 27.5804Z" fill="#D69D76"/>
</svg>
