<svg width="164" height="96" viewBox="0 0 164 96" fill="none" xmlns="http://www.w3.org/2000/svg">
<mask id="mask0_13_2061" style="mask-type:luminance" maskUnits="userSpaceOnUse" x="39" y="0" width="87" height="96">
<path fill-rule="evenodd" clip-rule="evenodd" d="M39.8638 0.31665H125.351V95.2746H39.8638V0.31665Z" fill="white"/>
</mask>
<g mask="url(#mask0_13_2061)">
<path fill-rule="evenodd" clip-rule="evenodd" d="M82.8888 95.2748C36.6532 80.0038 39.9136 21.5111 39.9136 21.5111C58.5222 2.80943 82.6073 0.31665 82.6073 0.31665C82.6073 0.31665 106.694 2.80943 125.301 21.5111C125.301 21.5111 128.562 80.0038 82.3259 95.2748H82.8888Z" fill="#FFD34D"/>
</g>
<path fill-rule="evenodd" clip-rule="evenodd" d="M50.1786 26.0176C50.4987 37.8463 53.969 72.225 82.6114 84.1547C96.4199 78.4297 106.037 66.9492 111.203 50.0183C114.178 40.2713 114.891 31.1231 115.033 26.0176C101.91 14.5826 86.3631 11.3868 82.5851 10.7549C78.8293 11.3644 63.3806 14.4792 50.1786 26.0176ZM82.6081 88.6068L81.8543 88.3074C49.3195 75.4043 46.2195 36.6926 46.0451 25.1351L46.0303 24.1939L46.7273 23.5653C60.9868 10.6937 77.5463 7.33909 82.2814 6.61706L82.5949 6.56909L82.9076 6.61872C87.6731 7.36969 104.321 10.8103 118.482 23.562L119.182 24.1914L119.167 25.1351C119.086 30.215 118.454 40.3589 115.136 51.2307C109.49 69.7323 98.8006 82.2069 83.3627 88.3082L82.6081 88.6068Z" fill="#F2BA49"/>
<path fill-rule="evenodd" clip-rule="evenodd" d="M82.2305 18L86.2478 25.8999L95.2305 27.1672L88.7305 33.3168L90.265 42L82.2305 37.8999L74.1959 42L75.7305 33.3168L69.2305 27.1672L78.2132 25.8999L82.2305 18Z" fill="#FCBD11"/>
<path fill-rule="evenodd" clip-rule="evenodd" d="M41.624 9.51248H37.8559V5.72534H35.7681V9.51248H32V11.6116H35.7681V15.3987H37.8559V11.6116H41.624V9.51248Z" fill="#FFD34D"/>
<path fill-rule="evenodd" clip-rule="evenodd" d="M48.0457 2.86248C48.0457 4.44383 46.7702 5.72496 45.1976 5.72496C43.6242 5.72496 42.3486 4.44383 42.3486 2.86248C42.3486 1.28113 43.6242 0 45.1976 0C46.7702 0 48.0457 1.28113 48.0457 2.86248Z" fill="#F2BA49"/>
<path fill-rule="evenodd" clip-rule="evenodd" d="M123.891 8.93594C123.891 10.2427 122.837 11.3022 121.536 11.3022C120.236 11.3022 119.181 10.2427 119.181 8.93594C119.181 7.62835 120.236 6.5697 121.536 6.5697C122.837 6.5697 123.891 7.62835 123.891 8.93594Z" fill="#FFD34D"/>
<path fill-rule="evenodd" clip-rule="evenodd" d="M135.87 37.145H132.617V33.8748H130.814V37.145H127.56V38.9571H130.814V42.2281H132.617V38.9571H135.87V37.145Z" fill="#FFD34D"/>
<path fill-rule="evenodd" clip-rule="evenodd" d="M33.4992 38.0513C33.4992 39.2894 32.501 40.2934 31.2691 40.2934C30.0364 40.2934 29.0374 39.2894 29.0374 38.0513C29.0374 36.8131 30.0364 35.8091 31.2691 35.8091C32.501 35.8091 33.4992 36.8131 33.4992 38.0513Z" fill="#F2BA49"/>
<g clip-path="url(#clip0_13_2061)">
<path fill-rule="evenodd" clip-rule="evenodd" d="M0 59.6875L13.5672 73.1517L0 86.6169V86.9184H43.1884V59.6875H0Z" fill="#EA9975"/>
<path fill-rule="evenodd" clip-rule="evenodd" d="M27.7615 79.2216L43.1881 86.9176V79.2216H27.7615Z" fill="#CA7A57"/>
<path fill-rule="evenodd" clip-rule="evenodd" d="M163.057 59.6875L149.49 73.1517L163.057 86.6169V86.9184H119.868V59.6875H163.057Z" fill="#EA9975"/>
<path fill-rule="evenodd" clip-rule="evenodd" d="M27.5288 79.2211H135.529V49.8049H27.5288V79.2211Z" fill="#FBC399"/>
<path d="M60.735 68C60.625 68 60.535 67.965 60.465 67.895C60.395 67.825 60.36 67.735 60.36 67.625V59.855H57.69C57.58 59.855 57.49 59.82 57.42 59.75C57.35 59.67 57.315 59.58 57.315 59.48V57.875C57.315 57.765 57.35 57.675 57.42 57.605C57.49 57.535 57.58 57.5 57.69 57.5H65.76C65.87 57.5 65.96 57.535 66.03 57.605C66.1 57.675 66.135 57.765 66.135 57.875V59.48C66.135 59.58 66.1 59.67 66.03 59.75C65.96 59.82 65.87 59.855 65.76 59.855H63.09V67.625C63.09 67.735 63.055 67.825 62.985 67.895C62.915 67.965 62.825 68 62.715 68H60.735ZM71.6271 68.15C70.7071 68.15 69.9071 68 69.2271 67.7C68.5471 67.4 68.0171 66.95 67.6371 66.35C67.2571 65.74 67.0471 64.98 67.0071 64.07C66.9971 63.64 66.9921 63.21 66.9921 62.78C66.9921 62.35 66.9971 61.915 67.0071 61.475C67.0471 60.575 67.2571 59.82 67.6371 59.21C68.0271 58.59 68.5621 58.125 69.2421 57.815C69.9221 57.505 70.7171 57.35 71.6271 57.35C72.5271 57.35 73.3171 57.505 73.9971 57.815C74.6871 58.125 75.2271 58.59 75.6171 59.21C76.0071 59.82 76.2171 60.575 76.2471 61.475C76.2671 61.915 76.2771 62.35 76.2771 62.78C76.2771 63.21 76.2671 63.64 76.2471 64.07C76.2071 64.98 75.9971 65.74 75.6171 66.35C75.2371 66.95 74.7071 67.4 74.0271 67.7C73.3471 68 72.5471 68.15 71.6271 68.15ZM71.6271 65.99C72.1571 65.99 72.5871 65.83 72.9171 65.51C73.2571 65.19 73.4371 64.68 73.4571 63.98C73.4771 63.54 73.4871 63.125 73.4871 62.735C73.4871 62.345 73.4771 61.94 73.4571 61.52C73.4371 61.05 73.3471 60.67 73.1871 60.38C73.0371 60.08 72.8271 59.86 72.5571 59.72C72.2871 59.58 71.9771 59.51 71.6271 59.51C71.2871 59.51 70.9821 59.58 70.7121 59.72C70.4421 59.86 70.2271 60.08 70.0671 60.38C69.9071 60.67 69.8171 61.05 69.7971 61.52C69.7871 61.94 69.7821 62.345 69.7821 62.735C69.7821 63.125 69.7871 63.54 69.7971 63.98C69.8271 64.68 70.0071 65.19 70.3371 65.51C70.6671 65.83 71.0971 65.99 71.6271 65.99ZM78.3908 68C78.2808 68 78.1908 67.965 78.1208 67.895C78.0508 67.825 78.0158 67.735 78.0158 67.625V57.875C78.0158 57.765 78.0508 57.675 78.1208 57.605C78.1908 57.535 78.2808 57.5 78.3908 57.5H82.5908C83.4208 57.5 84.1408 57.63 84.7508 57.89C85.3708 58.14 85.8508 58.52 86.1908 59.03C86.5408 59.54 86.7158 60.185 86.7158 60.965C86.7158 61.735 86.5408 62.37 86.1908 62.87C85.8508 63.37 85.3708 63.74 84.7508 63.98C84.1408 64.22 83.4208 64.34 82.5908 64.34H80.8058V67.625C80.8058 67.735 80.7658 67.825 80.6858 67.895C80.6158 67.965 80.5258 68 80.4158 68H78.3908ZM80.7608 62.27H82.5158C82.9458 62.27 83.2858 62.16 83.5358 61.94C83.7958 61.72 83.9258 61.385 83.9258 60.935C83.9258 60.555 83.8158 60.235 83.5958 59.975C83.3758 59.715 83.0158 59.585 82.5158 59.585H80.7608V62.27ZM94.1286 68C94.0286 68 93.9386 67.965 93.8586 67.895C93.7886 67.825 93.7536 67.735 93.7536 67.625V60.485L91.6986 62.06C91.6086 62.13 91.5136 62.155 91.4136 62.135C91.3236 62.115 91.2436 62.06 91.1736 61.97L90.2886 60.815C90.2286 60.725 90.2036 60.63 90.2136 60.53C90.2336 60.42 90.2936 60.335 90.3936 60.275L93.8436 57.605C93.9036 57.565 93.9586 57.54 94.0086 57.53C94.0686 57.51 94.1336 57.5 94.2036 57.5H96.0786C96.1786 57.5 96.2636 57.535 96.3336 57.605C96.4136 57.675 96.4536 57.765 96.4536 57.875V67.625C96.4536 67.735 96.4136 67.825 96.3336 67.895C96.2636 67.965 96.1786 68 96.0786 68H94.1286ZM102.515 68.15C101.795 68.15 101.17 68.05 100.64 67.85C100.11 67.64 99.6697 67.355 99.3197 66.995C98.9797 66.635 98.7197 66.215 98.5397 65.735C98.3597 65.255 98.2547 64.74 98.2247 64.19C98.2147 63.92 98.2047 63.615 98.1947 63.275C98.1947 62.925 98.1947 62.575 98.1947 62.225C98.2047 61.865 98.2147 61.545 98.2247 61.265C98.2547 60.715 98.3597 60.205 98.5397 59.735C98.7297 59.255 98.9997 58.84 99.3497 58.49C99.7097 58.13 100.15 57.85 100.67 57.65C101.2 57.45 101.815 57.35 102.515 57.35C103.225 57.35 103.84 57.45 104.36 57.65C104.88 57.85 105.315 58.13 105.665 58.49C106.025 58.84 106.3 59.255 106.49 59.735C106.68 60.205 106.785 60.715 106.805 61.265C106.825 61.545 106.835 61.865 106.835 62.225C106.845 62.575 106.845 62.925 106.835 63.275C106.835 63.615 106.825 63.92 106.805 64.19C106.785 64.74 106.68 65.255 106.49 65.735C106.31 66.215 106.045 66.635 105.695 66.995C105.355 67.355 104.92 67.64 104.39 67.85C103.87 68.05 103.245 68.15 102.515 68.15ZM102.515 65.975C103.035 65.975 103.41 65.81 103.64 65.48C103.88 65.14 104.005 64.685 104.015 64.115C104.035 63.825 104.045 63.52 104.045 63.2C104.055 62.88 104.055 62.56 104.045 62.24C104.045 61.92 104.035 61.625 104.015 61.355C104.005 60.805 103.88 60.36 103.64 60.02C103.41 59.68 103.035 59.505 102.515 59.495C101.995 59.505 101.62 59.68 101.39 60.02C101.16 60.36 101.035 60.805 101.015 61.355C101.005 61.625 100.995 61.92 100.985 62.24C100.985 62.56 100.985 62.88 100.985 63.2C100.995 63.52 101.005 63.825 101.015 64.115C101.035 64.685 101.165 65.14 101.405 65.48C101.645 65.81 102.015 65.975 102.515 65.975Z" fill="#D47A52"/>
<path fill-rule="evenodd" clip-rule="evenodd" d="M135.295 79.2216L119.869 86.9176V79.2216H135.295Z" fill="#CA7A57"/>
</g>
<defs>
<clipPath id="clip0_13_2061">
<rect width="164" height="38" fill="white" transform="translate(0 49)"/>
</clipPath>
</defs>
</svg>
