<svg width="27" height="28" viewBox="0 0 27 28" fill="none" xmlns="http://www.w3.org/2000/svg">
<path fill-rule="evenodd" clip-rule="evenodd" d="M5.3689 16.781C5.3689 16.781 7.92818 27.8887 13.7681 27.8887C19.6079 27.8887 21.5239 19.8359 21.5239 19.8359L20.9415 12.2495L5.3689 16.781Z" fill="#F0BF7C"/>
<path fill-rule="evenodd" clip-rule="evenodd" d="M20.4744 8.12617C21.9863 6.47924 25.0722 3.03683 26.0802 1.41464C27.4325 -0.777226 26.6581 4.68376 25.736 6.00875C25.736 6.00875 26.9285 7.2593 25.699 9.5626C25.699 9.5626 26.9285 13.1041 21.6299 14.7882C21.8389 13.9832 21.8019 9.97124 21.0644 8.9186C20.8922 8.67099 20.6834 8.39852 20.4744 8.12617Z" fill="#E94936"/>
<path fill-rule="evenodd" clip-rule="evenodd" d="M7.28313 8.36141C5.86944 6.82592 2.51311 3.12341 1.45611 1.41464C0.103709 -0.777226 0.878036 4.68376 1.81246 6.00875C1.81246 6.00875 0.607647 7.2593 1.84942 9.5626C1.84942 9.5626 0.607647 13.104 5.90628 14.7882L5.77109 14.144L6.42273 10.9494L6.57009 9.15384L7.28313 8.36141Z" fill="#E94936"/>
<path fill-rule="evenodd" clip-rule="evenodd" d="M4.93506 10.1817C4.93506 14.9861 5.46356 20.4099 7.77483 23.7409C6.77901 21.0908 6.77901 18.6019 6.8528 18.0201C6.92671 17.3512 7.2585 17.4629 7.2585 17.4629C10.5162 18.5277 13.7743 15.9025 13.7743 15.9025C13.7743 15.9025 17.0198 18.5277 20.2776 17.4629C20.2776 17.4629 20.6094 17.3512 20.6955 18.0201C20.7693 18.6019 20.7569 21.0908 19.7735 23.7409C22.0725 20.4099 22.6133 14.9861 22.6133 10.1817C22.6133 0.00306034 4.93506 0.00306034 4.93506 10.1817Z" fill="#50A1D2"/>
<path fill-rule="evenodd" clip-rule="evenodd" d="M14.8193 14.3919C14.8193 14.3919 17.2042 10.6276 20.9416 12.2495C20.9416 12.2495 21.5684 14.5155 19.6875 15.5556C17.8189 16.5961 14.8193 14.3919 14.8193 14.3919ZM12.7171 14.3919C12.7171 14.3919 10.3443 10.6276 6.5948 12.2495C6.5948 12.2495 5.98023 14.5155 7.84885 15.5556C9.72975 16.5961 12.7171 14.3919 12.7171 14.3919Z" fill="#FEFEFE"/>
<path fill-rule="evenodd" clip-rule="evenodd" d="M8.26601 14.027C7.39244 13.8319 6.72117 13.8419 6.76847 13.9113C7.00699 14.2554 7.40351 14.5462 7.86042 14.7706C8.2338 14.9517 8.64744 15.0895 9.05302 15.173C9.70618 15.3149 10.3382 15.3179 10.7247 15.1589C10.2506 14.7665 9.69209 14.4838 9.14762 14.2846C8.84268 14.1759 8.54478 14.0894 8.26601 14.027Z" fill="white"/>
<rect x="8.77881" y="13.8658" width="2.01282" height="2.01227" rx="1" fill="#263238"/>
<rect x="17.8365" y="13.8658" width="2.01282" height="2.01227" rx="1" fill="#263238"/>
<path fill-rule="evenodd" clip-rule="evenodd" d="M13.7745 3.99036L14.7088 6.92517H17.7698L15.2865 8.73313L16.2453 11.6553L13.7745 9.84738L11.291 11.6553L12.25 8.73313L9.7666 6.92517H12.8276L13.7745 3.99036Z" fill="#FEFEFE"/>
<path fill-rule="evenodd" clip-rule="evenodd" d="M21.1383 7.3957C21.5316 8.27482 21.7774 9.32735 21.7774 10.5779C21.7774 11.3211 21.7651 12.0763 21.7406 12.8442C21.63 15.5557 21.298 18.3171 20.548 20.7073C20.4128 21.6113 20.1669 22.6637 19.7737 23.7409C21.3965 21.3882 22.1463 17.983 22.4413 14.4909C22.5644 13.0545 22.6135 11.5934 22.6135 10.1819C22.6135 8.84438 22.3063 7.68042 21.7651 6.68985C19.4417 2.38057 12.803 1.43949 8.58643 3.86636C10.7746 2.92527 12.9384 2.88817 12.9384 2.88817C12.9384 2.88817 19.0975 2.97498 21.1383 7.3957Z" fill="#4284AB"/>
<path fill-rule="evenodd" clip-rule="evenodd" d="M6.87736 6.14483C7.02495 5.93433 7.30762 5.87248 7.529 6.02114C7.73799 6.16957 7.78711 6.46689 7.65203 6.67739C7.41837 7.0117 7.22166 7.40798 7.08635 7.86621C6.97583 8.27485 6.91443 8.73308 6.92671 9.24067C6.93899 9.50065 6.73 9.72353 6.47178 9.72353C6.22595 9.7359 6.00468 9.52539 6.00468 9.26541C5.98012 8.65852 6.0538 8.10145 6.18888 7.61848C6.34886 7.04881 6.59469 6.55347 6.87736 6.14483ZM8.69686 4.4979C8.93041 4.37421 9.21331 4.46079 9.33611 4.68367C9.45914 4.90666 9.37295 5.19137 9.1394 5.3153C9.05344 5.36477 8.95497 5.42662 8.85673 5.48846C8.75849 5.55054 8.66002 5.62475 8.57395 5.68671C8.36496 5.84774 8.07001 5.79815 7.91014 5.58765C7.76255 5.38951 7.8119 5.09242 8.00838 4.93139C8.13141 4.84469 8.24204 4.77025 8.35268 4.7084C8.47559 4.62182 8.59862 4.54749 8.69686 4.4979Z" fill="#FEFEFE"/>
<path d="M16.3105 20.3251L17.5779 21.2338C17.7581 21.363 17.8652 21.5721 17.8652 21.795V23.0057" stroke="#C38539" stroke-width="0.5" stroke-linecap="round"/>
<path d="M11.2878 20.3251L9.98656 21.2581C9.82749 21.3722 9.73315 21.5565 9.73315 21.7532V23.0057" stroke="#C38539" stroke-width="0.5" stroke-linecap="round"/>
<path d="M11.0686 22.8199L11.4244 22.6075H16.1146" stroke="#C38539" stroke-width="0.5" stroke-linecap="round"/>
</svg>
