<svg width="33" height="31" viewBox="0 0 33 31" fill="none" xmlns="http://www.w3.org/2000/svg">
<path fill-rule="evenodd" clip-rule="evenodd" d="M16.3738 0.429443C12.8643 0.429443 9.73294 2.06876 7.71411 4.61733C8.34029 4.808 9.02652 4.9758 9.77988 5.11395C10.0492 5.16331 10.3254 5.2097 10.5925 5.25445C11.7178 5.44322 12.8816 5.63842 13.9397 6.12519C14.9096 6.57136 15.9562 7.41371 16.3738 8.563C16.7914 7.41371 17.838 6.57136 18.8079 6.12519C19.866 5.63842 21.0297 5.44322 22.1551 5.25445C22.4222 5.2097 22.6985 5.16331 22.9677 5.11395C23.6191 4.99452 24.3203 4.83278 25.0319 4.61534C23.0131 2.06795 19.8824 0.429443 16.3738 0.429443Z" fill="#FF9A8F"/>
<path fill-rule="evenodd" clip-rule="evenodd" d="M16.3739 30.1523C22.4484 30.1523 27.3904 25.2411 27.3904 19.2043V13.4422C27.1134 13.4339 26.8451 13.4186 26.5917 13.404C25.4492 13.338 24.2679 13.2701 23.2212 13.6947C22.1165 14.1431 21.2708 15.1411 21.0141 16.2992C20.8624 16.9839 20.905 17.7368 21.1406 18.5411C21.3242 18.3886 21.547 18.3047 21.7418 18.238C22.0566 18.1302 22.3805 18.0388 22.6937 17.9504C23.1962 17.8087 23.716 17.662 24.1931 17.4472C24.7012 17.2186 25.5932 16.6985 25.8607 15.7828C25.8833 15.7055 25.9545 15.6524 26.0355 15.6524H26.0363C26.1177 15.6528 26.1888 15.7068 26.2106 15.7846C26.5242 16.9011 26.4393 18.1059 25.9957 19.1694C26.0982 19.0376 26.1901 18.8977 26.2702 18.7507C26.305 18.6867 26.3752 18.6493 26.4482 18.657C26.5212 18.6642 26.5826 18.7142 26.6042 18.7839C26.8775 19.6701 26.6941 20.6695 26.1619 21.4247L26.4991 21.3003C26.5616 21.2774 26.6312 21.29 26.6814 21.3329C26.7315 21.3762 26.7542 21.443 26.7404 21.5074C26.4621 22.8068 25.5876 23.8284 24.5126 24.1102C24.4439 24.1282 24.3739 24.1434 24.3021 24.1558C24.4723 24.5068 24.6073 24.8407 24.7123 25.1704L24.7163 25.1828C24.8105 25.4809 24.7263 25.7998 24.4962 26.0155C24.339 26.1628 24.1376 26.2404 23.9316 26.2404C23.8332 26.2404 23.734 26.2228 23.638 26.1866C21.1991 25.2656 18.6869 24.7737 16.3731 24.7637C14.061 24.7737 11.5488 25.2656 9.10986 26.1865C8.81274 26.2988 8.48378 26.2332 8.25161 26.0155C8.02162 25.7998 7.93729 25.4809 8.03154 25.183L8.03536 25.1706C8.14053 24.8407 8.27544 24.5068 8.44566 24.1558C8.37388 24.1434 8.30392 24.1282 8.23514 24.1102C7.16018 23.8284 6.28573 22.8068 6.00744 21.5074C5.9937 21.443 6.01626 21.3762 6.06648 21.3329C6.11661 21.29 6.18657 21.2773 6.24879 21.3003L6.58586 21.4247C6.05365 20.6695 5.87025 19.6701 6.14372 18.7839C6.16519 18.7142 6.2266 18.6642 6.29965 18.657C6.37261 18.6492 6.44275 18.6867 6.4776 18.7507C6.55775 18.8977 6.64963 19.0376 6.75207 19.1694C6.30838 18.1059 6.22359 16.901 6.53718 15.7846C6.55902 15.7068 6.63016 15.6528 6.71149 15.6524H6.7124C6.79328 15.6524 6.86451 15.7055 6.88717 15.7828C7.15463 16.6985 8.04673 17.2186 8.55465 17.4472C9.0319 17.662 9.55164 17.8087 10.0543 17.9504C10.3674 18.0388 10.6912 18.1302 11.0061 18.238C11.2009 18.3047 11.4237 18.3886 11.6072 18.5411C11.8428 17.7368 11.8855 16.9839 11.7338 16.2992C11.4771 15.1411 10.6313 14.1431 9.52662 13.6947C8.48005 13.2701 7.29855 13.338 6.15609 13.404C5.90282 13.4185 5.63444 13.4337 5.35742 13.442V19.2043C5.35742 25.2411 10.2995 30.1523 16.3739 30.1523Z" fill="#FF9A8F"/>
<path fill-rule="evenodd" clip-rule="evenodd" d="M7.71513 7.35152C8.65618 7.82599 9.72004 8.05292 10.5418 8.19758C11.3536 8.3407 12.078 8.49991 12.7249 9.00096C12.8566 9.10285 12.9834 9.21569 13.102 9.33611C13.506 9.74603 13.8293 10.26 14.037 10.8225L14.0487 10.8536C14.4419 11.8984 14.4039 11.9756 14.3635 12.0572C14.3393 12.1063 14.2975 12.142 14.246 12.1578C14.243 12.1588 14.2401 12.1596 14.237 12.1603L14.006 12.2192C13.2011 12.4248 12.3751 12.6358 11.5323 12.6358C11.2779 12.6358 11.0221 12.6166 10.7647 12.5723C9.69466 12.3877 8.72832 11.8209 8.11342 11.017C7.24834 9.88617 6.97232 8.4255 6.81667 7.14575C6.81657 7.14566 6.81657 7.14557 6.81657 7.14539C6.80447 7.04621 6.87553 6.95616 6.97533 6.94413C7.05902 6.93392 7.13662 6.98238 7.16637 7.05706C7.20358 7.09232 7.31803 7.16492 7.63699 7.31427C7.67128 7.33037 7.69848 7.3432 7.71513 7.35152ZM16.2134 12.808C16.245 12.749 16.3067 12.7123 16.3739 12.7123C16.4411 12.7123 16.5027 12.749 16.5343 12.808L19.1126 17.6035C19.1427 17.6595 19.141 17.7272 19.1081 17.7816C19.0753 17.8361 19.0159 17.8695 18.9521 17.8695H13.7956C13.7317 17.8695 13.6724 17.8361 13.6396 17.7816C13.6068 17.7272 13.605 17.6595 13.6351 17.6035L16.2134 12.808ZM18.699 10.8536L18.7106 10.8226C18.9184 10.26 19.2417 9.74603 19.6456 9.33611C19.7643 9.21569 19.8912 9.10294 20.0228 9.00096C20.6696 8.49991 21.3941 8.3407 22.2058 8.19758C23.0276 8.05292 24.0915 7.82599 25.0325 7.35161C25.0491 7.34311 25.0764 7.33036 25.1109 7.31418C25.4297 7.16491 25.5441 7.09232 25.5813 7.05705C25.6109 6.98238 25.6888 6.93437 25.7724 6.94413C25.8721 6.95616 25.9431 7.04621 25.9311 7.14539C25.9311 7.14566 25.931 7.14584 25.931 7.14611C25.7753 8.42577 25.4995 9.88617 24.6344 11.017C24.0194 11.8209 23.053 12.3877 21.9829 12.5723C21.7256 12.6166 21.4697 12.6358 21.2154 12.6358C20.3726 12.6358 19.5467 12.4248 18.7417 12.2192L18.5107 12.1603C18.5077 12.1596 18.5047 12.1588 18.5017 12.1578C18.4502 12.142 18.4084 12.1063 18.3841 12.0572C18.3439 11.9756 18.3057 11.8984 18.699 10.8536ZM21.15 20.6386C21.6353 20.8565 22.0019 21.2561 22.1308 21.7076C22.2286 22.0501 22.1825 22.3861 22.001 22.6536C21.7343 23.0485 21.2605 23.2665 20.7558 23.2665C20.5129 23.2665 20.2629 23.216 20.0254 23.1106C20.0251 23.1104 20.0249 23.1104 20.0247 23.1103C17.7045 22.0663 15.0432 22.0663 12.7231 23.1103C11.9911 23.4352 11.1418 23.2387 10.7465 22.6532C10.5652 22.3862 10.519 22.0502 10.6169 21.7076C10.7457 21.2561 11.1125 20.8565 11.5978 20.6386C14.633 19.2729 18.1147 19.2729 21.15 20.6386ZM6.13499 13.0428C7.31785 12.9748 8.54119 12.9042 9.66409 13.3599C10.8779 13.8525 11.8071 14.9489 12.089 16.2215C12.274 17.056 12.1956 17.9765 11.8559 18.9572C11.8333 19.0224 11.7754 19.0691 11.7066 19.0777C11.638 19.0862 11.5699 19.0553 11.5318 18.9976C11.4859 18.9281 11.4358 18.8709 11.379 18.8228C11.2422 18.7071 11.0611 18.6394 10.8874 18.5798C10.582 18.4753 10.2632 18.3853 9.95485 18.2983C9.43938 18.1529 8.90645 18.0026 8.40454 17.7767C7.94357 17.5693 7.19712 17.1424 6.77054 16.4193C6.5794 17.6379 6.86961 18.9173 7.58513 19.9323C7.63508 20.0031 7.62752 20.0991 7.56721 20.1615C7.50689 20.2236 7.41064 20.2347 7.3375 20.188C6.97332 19.9548 6.65546 19.655 6.40155 19.3075C6.2881 20.1974 6.64536 21.1414 7.34505 21.7153C7.41355 21.7716 7.4312 21.8686 7.3869 21.9451C7.3425 22.0215 7.24925 22.0551 7.16592 22.0243L6.44903 21.7599C6.76244 22.7682 7.47469 23.5368 8.32794 23.7605C8.45667 23.7943 8.59059 23.8163 8.73733 23.8278C8.79801 23.8326 8.85223 23.8672 8.88189 23.9201C8.91154 23.9729 8.91264 24.037 8.8848 24.0908C8.66828 24.5091 8.50389 24.898 8.38234 25.2796L8.37852 25.2916C8.32567 25.4585 8.37152 25.6309 8.50125 25.7523C8.63316 25.8761 8.81229 25.9123 8.98059 25.8484C11.4598 24.9123 14.0161 24.4122 16.373 24.4021C18.7316 24.4122 21.2878 24.9123 23.7671 25.8485C23.9354 25.912 24.1145 25.8761 24.2465 25.7523C24.3761 25.6309 24.422 25.4585 24.3691 25.2914L24.3654 25.2794C24.2438 24.898 24.0794 24.5091 23.863 24.0908C23.8351 24.037 23.8362 23.9729 23.8657 23.9201C23.8954 23.8672 23.9498 23.8326 24.0105 23.8278C24.1572 23.8163 24.291 23.7943 24.4197 23.7605C25.2729 23.5368 25.9852 22.7682 26.2986 21.7599L25.5818 22.0243C25.4984 22.0551 25.4051 22.0215 25.3608 21.9451C25.3165 21.8686 25.3342 21.7716 25.4027 21.7153C26.1024 21.1414 26.4596 20.1974 26.3461 19.3075C26.0923 19.655 25.7743 19.9548 25.41 20.188C25.3371 20.2348 25.2408 20.2237 25.1804 20.1615C25.1201 20.0991 25.1126 20.0031 25.1625 19.9323C25.8781 18.9173 26.1682 17.6379 25.9772 16.4193C25.5506 17.1424 24.8042 17.5693 24.3432 17.7767C23.8413 18.0026 23.3084 18.1529 22.793 18.2983C22.4846 18.3853 22.1656 18.4753 21.8603 18.5798C21.6865 18.6394 21.5054 18.7071 21.3687 18.8228C21.312 18.8708 21.2619 18.9281 21.2159 18.9976C21.1778 19.0553 21.1097 19.0861 21.0411 19.0777C20.9724 19.0691 20.9143 19.0224 20.8918 18.9572C20.5522 17.9765 20.4737 17.056 20.6586 16.2215C20.9406 14.9489 21.8697 13.8525 23.0836 13.3599C24.2064 12.9041 25.4297 12.9748 26.6127 13.0428C27.6353 13.1018 28.9078 13.175 29.9723 12.7139C31.0406 12.2508 31.5838 11.299 31.5781 10.5148C31.0718 10.9371 30.4792 11.2566 29.8462 11.4466C29.768 11.4699 29.6837 11.439 29.6399 11.3703C29.5962 11.3018 29.6037 11.2128 29.6584 11.1525C30.5941 10.1202 31.2473 8.83542 31.5368 7.47592C31.0735 7.94443 30.4511 8.25879 29.7935 8.33672C29.7139 8.34558 29.6373 8.30263 29.6052 8.22949C29.573 8.15635 29.593 8.07109 29.654 8.01947C30.7657 7.08047 31.4843 5.70298 31.6324 4.26257C31.2241 4.61354 30.7133 4.84282 30.1745 4.90855C30.1015 4.91741 30.0296 4.88152 29.9934 4.81733C29.9573 4.75314 29.9641 4.67366 30.0101 4.61616C30.8159 3.61424 31.1494 2.26641 30.9232 1.00745C29.8856 2.64848 27.6874 4.61607 23.0338 5.46964C22.7619 5.51945 22.4842 5.56601 22.2157 5.61104C21.114 5.79583 19.9746 5.98696 18.9608 6.45339C17.856 6.96158 16.644 8.01658 16.5554 9.45374C16.5495 9.54921 16.47 9.62353 16.3739 9.62353C16.2777 9.62353 16.1981 9.54921 16.1923 9.45374C16.1037 8.01658 14.8917 6.96158 13.7869 6.45339C12.7731 5.98696 11.6338 5.79583 10.5319 5.61104C10.2634 5.56601 9.98587 5.51945 9.71394 5.46964C5.0603 4.61607 2.86198 2.64848 1.82451 1.00745C1.59834 2.26641 1.93186 3.61424 2.73753 4.61616C2.78375 4.67366 2.7903 4.75314 2.75427 4.81733C2.71824 4.88152 2.64656 4.91741 2.57323 4.90855C2.03439 4.84282 1.52356 4.61354 1.11536 4.26257C1.26337 5.70298 1.98207 7.08047 3.09361 8.01947C3.15483 8.07109 3.17467 8.15635 3.14255 8.22949C3.11044 8.30263 3.03402 8.34558 2.95423 8.33672C2.29667 8.25879 1.67422 7.94443 1.21079 7.47592C1.50045 8.83542 2.15356 10.1202 3.08933 11.1525C3.14392 11.2128 3.15147 11.3018 3.1078 11.3703C3.06404 11.4388 2.97971 11.47 2.90156 11.4466C2.26837 11.2566 1.67594 10.9371 1.16949 10.5148C1.16385 11.299 1.70715 12.2508 2.77538 12.7139C3.83978 13.1752 5.11243 13.1018 6.13499 13.0428Z" fill="#FFCE4B"/>
<path d="M7.71513 7.35152L7.85695 7.07025L7.85592 7.06973L7.71513 7.35152ZM10.5418 8.19758L10.5965 7.88736L10.5964 7.88735L10.5418 8.19758ZM12.7249 9.00096L12.5319 9.24999L12.5321 9.25013L12.7249 9.00096ZM13.102 9.33611L12.8776 9.55717L12.8777 9.55721L13.102 9.33611ZM14.037 10.8225L13.7415 10.9317L13.7424 10.934L14.037 10.8225ZM14.0487 10.8536L14.3435 10.7426L14.3433 10.7421L14.0487 10.8536ZM14.3635 12.0572L14.0812 11.9174L14.081 11.9179L14.3635 12.0572ZM14.246 12.1578L14.1535 11.8565L14.1441 11.8597L14.246 12.1578ZM14.237 12.1603L14.1653 11.8536L14.1593 11.8551L14.237 12.1603ZM14.006 12.2192L13.9282 11.9139L13.928 11.914L14.006 12.2192ZM10.7647 12.5723L10.7112 12.8827L10.7113 12.8827L10.7647 12.5723ZM8.11342 11.017L8.36362 10.8256L8.36361 10.8256L8.11342 11.017ZM6.81667 7.14575L7.12936 7.10771L7.11617 6.9993L7.03871 6.92232L6.81667 7.14575ZM6.81657 7.14539H7.13157V7.12624L7.12926 7.10724L6.81657 7.14539ZM6.97533 6.94413L7.01301 7.25687L7.01349 7.25681L6.97533 6.94413ZM7.16637 7.05706L6.87374 7.17363L6.89939 7.23802L6.9497 7.2857L7.16637 7.05706ZM7.63699 7.31427L7.77079 7.0291L7.77057 7.029L7.63699 7.31427ZM16.2134 12.808L16.4908 12.9571L16.4909 12.957L16.2134 12.808ZM16.5343 12.808L16.2568 12.957L16.2569 12.9571L16.5343 12.808ZM19.1126 17.6035L19.3901 17.4544L19.39 17.4543L19.1126 17.6035ZM19.1081 17.7816L18.8386 17.6185L18.8383 17.619L19.1081 17.7816ZM13.6396 17.7816L13.9094 17.619L13.9093 17.6188L13.6396 17.7816ZM13.6351 17.6035L13.3577 17.4543L13.3577 17.4544L13.6351 17.6035ZM18.699 10.8536L18.4042 10.7425L18.4042 10.7426L18.699 10.8536ZM18.7106 10.8226L19.0054 10.9337L19.0061 10.9318L18.7106 10.8226ZM19.6456 9.33611L19.4213 9.11497L19.4212 9.11504L19.6456 9.33611ZM20.0228 9.00096L19.8299 8.75194L19.8298 8.75201L20.0228 9.00096ZM22.2058 8.19758L22.1512 7.88735L22.1511 7.88736L22.2058 8.19758ZM25.0325 7.35161L25.1743 7.63289L25.1757 7.63217L25.0325 7.35161ZM25.1109 7.31418L24.9773 7.02891L24.9771 7.02903L25.1109 7.31418ZM25.5813 7.05705L25.798 7.2857L25.8486 7.23778L25.8742 7.17301L25.5813 7.05705ZM25.7724 6.94413L25.8101 6.6314L25.8089 6.63126L25.7724 6.94413ZM25.9311 7.14539L25.6184 7.10752L25.6161 7.12639V7.14539H25.9311ZM25.931 7.14611L25.6323 7.04594L25.6221 7.07629L25.6183 7.10807L25.931 7.14611ZM24.6344 11.017L24.8846 11.2084L24.6344 11.017ZM21.9829 12.5723L22.0364 12.8827L22.0364 12.8827L21.9829 12.5723ZM18.7417 12.2192L18.8197 11.914L18.8195 11.9139L18.7417 12.2192ZM18.5107 12.1603L18.5884 11.8551L18.5845 11.8541L18.5107 12.1603ZM18.5017 12.1578L18.6007 11.8587L18.5942 11.8567L18.5017 12.1578ZM18.3841 12.0572L18.1016 12.1965L18.1018 12.1969L18.3841 12.0572ZM21.15 20.6386L21.0208 20.9259L21.021 20.926L21.15 20.6386ZM22.1308 21.7076L22.4337 21.6211L22.4337 21.6211L22.1308 21.7076ZM22.001 22.6536L21.7403 22.4768L21.74 22.4773L22.001 22.6536ZM20.0254 23.1106L19.8514 23.3732L19.8735 23.3878L19.8976 23.3985L20.0254 23.1106ZM20.0247 23.1103L20.165 22.828L20.1539 22.823L20.0247 23.1103ZM12.7231 23.1103L12.8509 23.3982L12.8524 23.3975L12.7231 23.1103ZM10.7465 22.6532L11.0076 22.477L11.0071 22.4763L10.7465 22.6532ZM10.6169 21.7076L10.9197 21.7942L10.9198 21.7941L10.6169 21.7076ZM11.5978 20.6386L11.7268 20.926L11.727 20.9259L11.5978 20.6386ZM6.13499 13.0428L6.11689 12.7284L6.11686 12.7284L6.13499 13.0428ZM9.66409 13.3599L9.78254 13.068L9.78253 13.068L9.66409 13.3599ZM12.089 16.2215L11.7815 16.2896L11.7815 16.2896L12.089 16.2215ZM11.8559 18.9572L11.5582 18.8541L11.5582 18.8542L11.8559 18.9572ZM11.7066 19.0777L11.7453 19.3903L11.7456 19.3903L11.7066 19.0777ZM11.5318 18.9976L11.269 19.1713L11.269 19.1713L11.5318 18.9976ZM11.379 18.8228L11.1755 19.0633L11.1755 19.0633L11.379 18.8228ZM10.8874 18.5798L10.9896 18.2819L10.9894 18.2818L10.8874 18.5798ZM9.95485 18.2983L10.0405 17.9951L10.0404 17.9951L9.95485 18.2983ZM8.40454 17.7767L8.5338 17.4894L8.53379 17.4894L8.40454 17.7767ZM6.77054 16.4193L7.04185 16.2592L6.59547 15.5026L6.45935 16.3705L6.77054 16.4193ZM7.58513 19.9323L7.84263 19.7508L7.84258 19.7508L7.58513 19.9323ZM7.56721 20.1615L7.79319 20.3809L7.79367 20.3804L7.56721 20.1615ZM7.3375 20.188L7.1676 20.4533L7.16811 20.4536L7.3375 20.188ZM6.40155 19.3075L6.65587 19.1217L6.18911 18.483L6.08907 19.2677L6.40155 19.3075ZM7.34505 21.7153L7.54491 21.4719L7.54482 21.4718L7.34505 21.7153ZM7.3869 21.9451L7.65925 22.1033L7.65947 22.1029L7.3869 21.9451ZM7.16592 22.0243L7.0569 22.3199L7.0569 22.3199L7.16592 22.0243ZM6.44903 21.7599L6.55805 21.4644L5.95856 21.2432L6.14823 21.8534L6.44903 21.7599ZM8.32794 23.7605L8.40797 23.4558L8.40782 23.4558L8.32794 23.7605ZM8.73733 23.8278L8.76213 23.5137L8.7619 23.5137L8.73733 23.8278ZM8.88189 23.9201L8.60713 24.0741L8.60725 24.0743L8.88189 23.9201ZM8.8848 24.0908L9.16455 24.2356L9.16456 24.2355L8.8848 24.0908ZM8.38234 25.2796L8.08221 25.184L8.08213 25.1842L8.38234 25.2796ZM8.37852 25.2916L8.07831 25.1962L8.07822 25.1965L8.37852 25.2916ZM8.50125 25.7523L8.71678 25.5226L8.7165 25.5223L8.50125 25.7523ZM8.98059 25.8484L8.86933 25.5537L8.86889 25.5539L8.98059 25.8484ZM16.373 24.4021L16.3744 24.0871L16.3717 24.0871L16.373 24.4021ZM23.7671 25.8485L23.6558 26.1432L23.656 26.1433L23.7671 25.8485ZM24.2465 25.7523L24.0311 25.5224L24.0309 25.5226L24.2465 25.7523ZM24.3691 25.2914L24.0682 25.3847L24.0688 25.3864L24.3691 25.2914ZM24.3654 25.2794L24.6662 25.1861L24.6655 25.1837L24.3654 25.2794ZM23.863 24.0908L24.1428 23.946L24.1426 23.9456L23.863 24.0908ZM23.8657 23.9201L23.591 23.766L23.5909 23.7662L23.8657 23.9201ZM24.0105 23.8278L23.9859 23.5137L23.9857 23.5137L24.0105 23.8278ZM24.4197 23.7605L24.3398 23.4558L24.3396 23.4558L24.4197 23.7605ZM26.2986 21.7599L26.5994 21.8534L26.7891 21.2432L26.1896 21.4644L26.2986 21.7599ZM25.5818 22.0243L25.6907 22.3199L25.6908 22.3199L25.5818 22.0243ZM25.4027 21.7153L25.2029 21.4718L25.2028 21.4719L25.4027 21.7153ZM26.3461 19.3075L26.6585 19.2677L26.5584 18.4827L26.0917 19.1218L26.3461 19.3075ZM25.41 20.188L25.2402 19.9228L25.2401 19.9228L25.41 20.188ZM25.1804 20.1615L24.954 20.3804L24.9544 20.3809L25.1804 20.1615ZM25.1625 19.9323L24.905 19.7507L24.9048 19.751L25.1625 19.9323ZM25.9772 16.4193L26.2884 16.3705L26.1523 15.5025L25.7059 16.2592L25.9772 16.4193ZM24.3432 17.7767L24.2139 17.4894L24.2139 17.4894L24.3432 17.7767ZM22.793 18.2983L22.7075 17.9951L22.7074 17.9951L22.793 18.2983ZM21.8603 18.5798L21.7583 18.2818L21.7581 18.2818L21.8603 18.5798ZM21.3687 18.8228L21.5721 19.0634L21.5723 19.0632L21.3687 18.8228ZM21.2159 18.9976L20.9533 18.8237L20.9531 18.8239L21.2159 18.9976ZM21.0411 19.0777L21.0021 19.3903L21.0028 19.3904L21.0411 19.0777ZM20.8918 18.9572L21.1894 18.8542L21.1894 18.8541L20.8918 18.9572ZM20.6586 16.2215L20.3511 16.1533L20.351 16.1533L20.6586 16.2215ZM23.0836 13.3599L23.2021 13.6518L23.2021 13.6518L23.0836 13.3599ZM26.6127 13.0428L26.6308 12.7284L26.6308 12.7284L26.6127 13.0428ZM29.9723 12.7139L30.0975 13.003L30.0976 13.0029L29.9723 12.7139ZM31.5781 10.5148L31.8931 10.5125L31.8883 9.84592L31.3764 10.2729L31.5781 10.5148ZM29.8462 11.4466L29.9359 11.7486L29.9367 11.7483L29.8462 11.4466ZM29.6399 11.3703L29.9055 11.201L29.9054 11.2008L29.6399 11.3703ZM29.6584 11.1525L29.8917 11.364L29.8918 11.364L29.6584 11.1525ZM31.5368 7.47592L31.8449 7.54155L32.0689 6.48994L31.3129 7.25443L31.5368 7.47592ZM29.7935 8.33672L29.8283 8.64979L29.8305 8.64953L29.7935 8.33672ZM29.654 8.01947L29.4508 7.77882L29.4506 7.77895L29.654 8.01947ZM31.6324 4.26257L31.9457 4.29477L32.0265 3.50824L31.427 4.02372L31.6324 4.26257ZM30.1745 4.90855L30.2125 5.22125L30.2126 5.22123L30.1745 4.90855ZM30.0101 4.61616L29.7646 4.41875L29.7642 4.4193L30.0101 4.61616ZM30.9232 1.00745L31.2332 0.95175L31.09 0.154243L30.657 0.839108L30.9232 1.00745ZM23.0338 5.46964L23.0905 5.77948L23.0906 5.77947L23.0338 5.46964ZM22.2157 5.61104L22.1636 5.30037L22.1636 5.30038L22.2157 5.61104ZM18.9608 6.45339L19.0925 6.73956L19.0925 6.73955L18.9608 6.45339ZM16.5554 9.45374L16.8698 9.47321L16.8698 9.4731L16.5554 9.45374ZM16.1923 9.45374L16.5067 9.43456L16.5067 9.43435L16.1923 9.45374ZM13.7869 6.45339L13.6552 6.73955L13.6553 6.73956L13.7869 6.45339ZM10.5319 5.61104L10.584 5.30037L10.5319 5.61104ZM9.71394 5.46964L9.65711 5.77947L9.65718 5.77948L9.71394 5.46964ZM1.82451 1.00745L2.09076 0.839118L1.65774 0.154196L1.51447 0.95175L1.82451 1.00745ZM2.73753 4.61616L2.98306 4.41883L2.98301 4.41877L2.73753 4.61616ZM2.57323 4.90855L2.53509 5.22123L2.53544 5.22128L2.57323 4.90855ZM1.11536 4.26257L1.32072 4.02372L0.721183 3.50824L0.802007 4.29477L1.11536 4.26257ZM3.09361 8.01947L2.89033 8.2601L2.89055 8.26029L3.09361 8.01947ZM2.95423 8.33672L2.91716 8.64954L2.91947 8.64979L2.95423 8.33672ZM1.21079 7.47592L1.43474 7.2544L0.678658 6.49004L0.902705 7.54157L1.21079 7.47592ZM3.08933 11.1525L3.32287 10.9411L3.3227 10.9409L3.08933 11.1525ZM3.1078 11.3703L3.37319 11.54L3.37345 11.5396L3.1078 11.3703ZM2.90156 11.4466L2.81101 11.7483L2.81146 11.7485L2.90156 11.4466ZM1.16949 10.5148L1.37122 10.2729L0.859289 9.84599L0.854495 10.5125L1.16949 10.5148ZM2.77538 12.7139L2.65009 13.0029L2.65012 13.0029L2.77538 12.7139ZM7.57332 7.63279C8.55797 8.12925 9.66039 8.36227 10.4872 8.50781L10.5964 7.88735C9.77968 7.74358 8.75439 7.52274 7.85695 7.07025L7.57332 7.63279ZM10.4871 8.50779C11.298 8.65075 11.9522 8.80088 12.5319 9.24999L12.9178 8.75194C12.2039 8.19894 11.4092 8.03065 10.5965 7.88736L10.4871 8.50779ZM12.5321 9.25013C12.6524 9.34312 12.7686 9.44652 12.8776 9.55717L13.3264 9.11505C13.1982 8.98486 13.0608 8.86259 12.9176 8.7518L12.5321 9.25013ZM12.8777 9.55721C13.2489 9.93394 13.5486 10.4093 13.7415 10.9316L14.3325 10.7134C14.11 10.1107 13.763 9.55813 13.3264 9.11502L12.8777 9.55721ZM13.7424 10.934L13.7541 10.965L14.3433 10.7421L14.3316 10.7111L13.7424 10.934ZM13.7539 10.9645C13.9507 11.4874 14.0317 11.7483 14.0608 11.8831C14.0753 11.9501 14.0719 11.9645 14.0729 11.9539C14.0751 11.9287 14.0869 11.9059 14.0812 11.9174L14.6458 12.197C14.6603 12.1677 14.692 12.1046 14.7004 12.0094C14.7076 11.9287 14.6967 11.8432 14.6766 11.7501C14.6365 11.5647 14.54 11.2646 14.3435 10.7426L13.7539 10.9645ZM14.081 11.9179C14.0946 11.8903 14.121 11.8666 14.1536 11.8567L14.3383 12.459C14.4741 12.4173 14.584 12.3223 14.646 12.1965L14.081 11.9179ZM14.1441 11.8597C14.1526 11.8568 14.1599 11.8549 14.1653 11.8536L14.3088 12.4671C14.3204 12.4643 14.3335 12.4608 14.3478 12.4559L14.1441 11.8597ZM14.1593 11.8551L13.9282 11.9139L14.0837 12.5245L14.3148 12.4656L14.1593 11.8551ZM13.928 11.914C13.1164 12.1213 12.3289 12.3208 11.5323 12.3208V12.9508C12.4214 12.9508 13.2858 12.7283 14.0839 12.5244L13.928 11.914ZM11.5323 12.3208C11.2939 12.3208 11.056 12.3028 10.8181 12.2618L10.7113 12.8827C10.9881 12.9303 11.2619 12.9508 11.5323 12.9508V12.3208ZM10.8182 12.2618C9.82015 12.0897 8.92659 11.5617 8.36362 10.8256L7.86322 11.2084C8.53006 12.0802 9.56916 12.6857 10.7112 12.8827L10.8182 12.2618ZM8.36361 10.8256C7.55426 9.76762 7.28446 8.38287 7.12936 7.10771L6.50397 7.18378C6.66019 8.46814 6.94242 10.0047 7.86323 11.2084L8.36361 10.8256ZM7.03871 6.92232C7.0579 6.94139 7.07792 6.96623 7.09462 6.99757C7.11133 7.02893 7.12042 7.05876 7.12539 7.08345C7.13 7.10633 7.13099 7.12469 7.13132 7.13284C7.13163 7.14042 7.13157 7.14723 7.13157 7.14539H6.50157C6.50157 7.14539 6.50157 7.14539 6.50157 7.1454C6.50157 7.14541 6.50157 7.14542 6.50157 7.14543C6.50157 7.14546 6.50157 7.14551 6.50157 7.14556C6.50157 7.14567 6.50157 7.14585 6.50157 7.14608C6.50158 7.14651 6.50158 7.14729 6.50159 7.14825C6.5016 7.15005 6.50165 7.15365 6.50183 7.15817C6.50216 7.16639 6.50316 7.18482 6.50778 7.20775C6.51974 7.26721 6.54906 7.3239 6.59462 7.36918L7.03871 6.92232ZM7.12926 7.10724C7.13847 7.18281 7.08423 7.24829 7.01301 7.25687L6.93764 6.6314C6.66682 6.66403 6.47047 6.90961 6.50389 7.18353L7.12926 7.10724ZM7.01349 7.25681C6.95213 7.2643 6.89578 7.22897 6.87374 7.17363L7.45901 6.94048C7.37746 6.73578 7.16592 6.60353 6.93716 6.63145L7.01349 7.25681ZM6.9497 7.2857C6.99801 7.33148 7.0646 7.37402 7.14133 7.41728C7.22399 7.46387 7.34013 7.52309 7.5034 7.59955L7.77057 7.029C7.61488 6.9561 7.51432 6.90433 7.45071 6.86848C7.38118 6.82928 7.37194 6.81789 7.38304 6.82841L6.9497 7.2857ZM7.50318 7.59944C7.53869 7.6161 7.56193 7.62711 7.57435 7.63331L7.85592 7.06973C7.83504 7.0593 7.80388 7.04463 7.77079 7.0291L7.50318 7.59944ZM16.4909 12.957C16.4673 13.001 16.4219 13.0273 16.3739 13.0273V12.3973C16.1915 12.3973 16.0228 12.4971 15.9359 12.6589L16.4909 12.957ZM16.3739 13.0273C16.3258 13.0273 16.2804 13.0009 16.2568 12.957L16.8118 12.6589C16.725 12.4971 16.5564 12.3973 16.3739 12.3973V13.0273ZM16.2569 12.9571L18.8351 17.7526L19.39 17.4543L16.8118 12.6588L16.2569 12.9571ZM18.8351 17.7526C18.8126 17.7108 18.8137 17.6597 18.8386 17.6185L19.3776 17.9447C19.4684 17.7946 19.4727 17.6083 19.3901 17.4544L18.8351 17.7526ZM18.8383 17.619C18.8628 17.5783 18.9062 17.5545 18.9521 17.5545V18.1845C19.1257 18.1845 19.2877 18.0939 19.3779 17.9441L18.8383 17.619ZM18.9521 17.5545H13.7956V18.1845H18.9521V17.5545ZM13.7956 17.5545C13.8415 17.5545 13.8849 17.5784 13.9094 17.619L13.3698 17.9441C13.4599 18.0938 13.6219 18.1845 13.7956 18.1845V17.5545ZM13.9093 17.6188C13.9339 17.6596 13.9352 17.7105 13.9126 17.7526L13.3577 17.4544C13.2748 17.6086 13.2796 17.7947 13.3699 17.9443L13.9093 17.6188ZM13.9126 17.7526L16.4908 12.9571L15.9359 12.6588L13.3577 17.4543L13.9126 17.7526ZM18.9938 10.9646L19.0054 10.9337L18.4158 10.7116L18.4042 10.7425L18.9938 10.9646ZM19.0061 10.9318C19.1991 10.4093 19.4988 9.93392 19.87 9.55718L19.4212 9.11504C18.9847 9.55814 18.6378 10.1107 18.4151 10.7135L19.0061 10.9318ZM19.8699 9.55726C19.9789 9.44665 20.0954 9.34322 20.2158 9.24991L19.8298 8.75201C19.687 8.86267 19.5497 8.98472 19.4213 9.11497L19.8699 9.55726ZM20.2157 9.24999C20.7954 8.80088 21.4497 8.65075 22.2605 8.50779L22.1511 7.88736C21.3385 8.03065 20.5438 8.19894 19.8299 8.75194L20.2157 9.24999ZM22.2604 8.50781C23.0872 8.36227 24.1897 8.12925 25.1743 7.63289L24.8907 7.07033C23.9933 7.52273 22.9679 7.74358 22.1512 7.88735L22.2604 8.50781ZM25.1757 7.63217C25.1864 7.62673 25.207 7.61703 25.2447 7.59933L24.9771 7.02903C24.9458 7.0437 24.9119 7.0595 24.8893 7.07105L25.1757 7.63217ZM25.2445 7.59946C25.4077 7.52305 25.5238 7.46385 25.6064 7.41726C25.6831 7.37402 25.7497 7.33148 25.798 7.2857L25.3647 6.82841C25.3758 6.81789 25.3665 6.82928 25.297 6.86847C25.2334 6.90431 25.1329 6.95605 24.9773 7.02891L25.2445 7.59946ZM25.8742 7.17301C25.8513 7.23077 25.7942 7.26382 25.7358 7.25701L25.8089 6.63126C25.5833 6.60491 25.3705 6.73398 25.2885 6.9411L25.8742 7.17301ZM25.7347 7.25687C25.6632 7.24825 25.6093 7.18275 25.6184 7.10752L26.2439 7.18325C26.277 6.90966 26.0809 6.66406 25.8101 6.6314L25.7347 7.25687ZM25.6161 7.14539C25.6161 7.10695 25.6232 7.07569 25.6295 7.05476C25.632 7.04633 25.6345 7.03971 25.6346 7.03942C25.6353 7.03735 25.6337 7.04178 25.6323 7.04594L26.2296 7.24628C26.2283 7.2503 26.2267 7.25461 26.2275 7.25242C26.2276 7.25201 26.2301 7.24528 26.2327 7.23674C26.239 7.21558 26.2461 7.18409 26.2461 7.14539H25.6161ZM25.6183 7.10807C25.4632 8.38316 25.1935 9.76763 24.3842 10.8256L24.8846 11.2084C25.8054 10.0047 26.0874 8.46839 26.2436 7.18415L25.6183 7.10807ZM24.3842 10.8256C23.8211 11.5617 22.9275 12.0897 21.9294 12.2618L22.0364 12.8827C23.1784 12.6857 24.2176 12.0802 24.8846 11.2084L24.3842 10.8256ZM21.9295 12.2618C21.6917 12.3028 21.4538 12.3208 21.2154 12.3208V12.9508C21.4857 12.9508 21.7596 12.9303 22.0364 12.8827L21.9295 12.2618ZM21.2154 12.3208C20.4188 12.3208 19.6314 12.1213 18.8197 11.914L18.6638 12.5244C19.462 12.7283 20.3263 12.9508 21.2154 12.9508V12.3208ZM18.8195 11.9139L18.5884 11.8551L18.4329 12.4656L18.664 12.5245L18.8195 11.9139ZM18.5845 11.8541C18.5871 11.8548 18.593 11.8562 18.6007 11.8588L18.4026 12.4568C18.4163 12.4614 18.4282 12.4645 18.4369 12.4666L18.5845 11.8541ZM18.5942 11.8567C18.6268 11.8667 18.653 11.8903 18.6665 11.9175L18.1018 12.1969C18.1638 12.3223 18.2735 12.4172 18.4091 12.4589L18.5942 11.8567ZM18.6666 11.9179C18.6609 11.9062 18.6726 11.929 18.6748 11.954C18.6758 11.9646 18.6724 11.9501 18.6869 11.8831C18.716 11.7483 18.797 11.4874 18.9938 10.9645L18.4042 10.7426C18.2077 11.2646 18.1111 11.5648 18.0711 11.7501C18.051 11.8432 18.0402 11.9287 18.0473 12.0093C18.0557 12.1044 18.0873 12.1674 18.1016 12.1965L18.6666 11.9179ZM21.021 20.926C21.4341 21.1115 21.7281 21.4444 21.8279 21.7941L22.4337 21.6211C22.2757 21.0678 21.8364 20.6015 21.2791 20.3513L21.021 20.926ZM21.8279 21.794C21.9031 22.0572 21.8637 22.2949 21.7403 22.4768L22.2617 22.8305C22.5013 22.4773 22.5542 22.043 22.4337 21.6211L21.8279 21.794ZM21.74 22.4773C21.5416 22.771 21.1746 22.9515 20.7558 22.9515V23.5815C21.3463 23.5815 21.927 23.326 22.2621 22.8299L21.74 22.4773ZM20.7558 22.9515C20.5563 22.9515 20.3499 22.91 20.1532 22.8227L19.8976 23.3985C20.176 23.5221 20.4695 23.5815 20.7558 23.5815V22.9515ZM20.1994 22.848C20.1795 22.8348 20.1624 22.8268 20.1548 22.8234C20.1518 22.822 20.148 22.8204 20.1501 22.8213C20.1502 22.8213 20.1568 22.8242 20.1649 22.8282L19.8845 23.3924C19.8926 23.3964 19.8994 23.3993 19.8995 23.3993C19.9018 23.4003 19.8981 23.3987 19.8952 23.3974C19.8878 23.3941 19.8711 23.3862 19.8514 23.3732L20.1994 22.848ZM20.1539 22.823C17.7515 21.7421 14.9961 21.7421 12.5939 22.823L12.8524 23.3975C15.0902 22.3906 17.6574 22.3905 19.8954 23.3975L20.1539 22.823ZM12.5953 22.8224C11.9759 23.0973 11.3019 22.9129 11.0076 22.477L10.4854 22.8295C10.9817 23.5646 12.0064 23.7731 12.8509 23.3982L12.5953 22.8224ZM11.0071 22.4763C10.884 22.295 10.8445 22.0574 10.9197 21.7942L10.314 21.6211C10.1934 22.0431 10.2464 22.4774 10.4859 22.8302L11.0071 22.4763ZM10.9198 21.7941C11.0195 21.4445 11.3136 21.1115 11.7268 20.926L11.4687 20.3513C10.9114 20.6015 10.4719 21.0678 10.314 21.6212L10.9198 21.7941ZM11.727 20.9259C14.6801 19.5971 18.0676 19.5971 21.0208 20.9259L21.2793 20.3514C18.1617 18.9487 14.586 18.9487 11.4685 20.3514L11.727 20.9259ZM6.15309 13.3573C7.34942 13.2885 8.49954 13.2273 9.54565 13.6518L9.78253 13.068C8.58283 12.5812 7.28627 12.6611 6.11689 12.7284L6.15309 13.3573ZM9.54564 13.6518C10.664 14.1056 11.5221 15.1188 11.7815 16.2896L12.3966 16.1533C12.0921 14.7791 11.0917 13.5993 9.78254 13.068L9.54564 13.6518ZM11.7815 16.2896C11.9514 17.0562 11.8829 17.9167 11.5582 18.8541L12.1535 19.0603C12.5082 18.0364 12.5966 17.0559 12.3966 16.1533L11.7815 16.2896ZM11.5582 18.8542C11.5751 18.8052 11.6181 18.7713 11.6676 18.7651L11.7456 19.3903C11.9328 19.3669 12.0915 19.2396 12.1535 19.0602L11.5582 18.8542ZM11.6678 18.7651C11.7165 18.7591 11.766 18.7806 11.7946 18.8239L11.269 19.1713C11.3739 19.33 11.5594 19.4133 11.7453 19.3903L11.6678 18.7651ZM11.7946 18.8239C11.734 18.7322 11.6645 18.6518 11.5824 18.5823L11.1755 19.0633C11.2071 19.0901 11.2377 19.124 11.269 19.1713L11.7946 18.8239ZM11.5825 18.5824C11.3946 18.4234 11.1591 18.34 10.9896 18.2819L10.7852 18.8778C10.9631 18.9388 11.0898 18.9908 11.1755 19.0633L11.5825 18.5824ZM10.9894 18.2818C10.6745 18.174 10.3472 18.0818 10.0405 17.9951L9.86924 18.6014C10.1791 18.6889 10.4896 18.7766 10.7854 18.8778L10.9894 18.2818ZM10.0404 17.9951C9.52119 17.8487 9.0109 17.7041 8.5338 17.4894L8.27528 18.064C8.802 18.301 9.35757 18.4571 9.86934 18.6015L10.0404 17.9951ZM8.53379 17.4894C8.09244 17.2909 7.41856 16.8978 7.04185 16.2592L6.49923 16.5793C6.97569 17.387 7.7947 17.8477 8.27529 18.064L8.53379 17.4894ZM6.45935 16.3705C6.25572 17.6688 6.56432 19.031 7.32768 20.1138L7.84258 19.7508C7.17491 18.8037 6.90309 17.6071 7.08174 16.4681L6.45935 16.3705ZM7.32763 20.1137C7.29022 20.0606 7.29627 19.9885 7.34075 19.9425L7.79367 20.3804C7.95878 20.2096 7.97993 19.9457 7.84263 19.7508L7.32763 20.1137ZM7.34123 19.942C7.38544 19.8965 7.45445 19.889 7.50688 19.9225L7.16811 20.4536C7.36683 20.5804 7.62835 20.5506 7.79319 20.3809L7.34123 19.942ZM7.5074 19.9228C7.17622 19.7107 6.88692 19.4378 6.65587 19.1217L6.14722 19.4934C6.42399 19.8721 6.77043 20.1989 7.1676 20.4533L7.5074 19.9228ZM6.08907 19.2677C5.96243 20.2612 6.35868 21.3137 7.14528 21.9589L7.54482 21.4718C6.93203 20.9691 6.61377 20.1337 6.71402 19.3474L6.08907 19.2677ZM7.14518 21.9588C7.0948 21.9174 7.08103 21.8447 7.11432 21.7872L7.65947 22.1029C7.78137 21.8925 7.73231 21.6257 7.54491 21.4719L7.14518 21.9588ZM7.11454 21.7868C7.14718 21.7306 7.21493 21.7067 7.27493 21.7288L7.0569 22.3199C7.28357 22.4035 7.53782 22.3123 7.65925 22.1033L7.11454 21.7868ZM7.27494 21.7288L6.55805 21.4644L6.34002 22.0554L7.0569 22.3199L7.27494 21.7288ZM6.14823 21.8534C6.48557 22.9386 7.26509 23.8075 8.24806 24.0652L8.40782 23.4558C7.68429 23.2661 7.03932 22.5977 6.74984 21.6664L6.14823 21.8534ZM8.24791 24.0652C8.39667 24.1042 8.54931 24.129 8.71276 24.1418L8.7619 23.5137C8.63186 23.5035 8.51667 23.4844 8.40797 23.4558L8.24791 24.0652ZM8.71253 24.1418C8.66888 24.1383 8.62911 24.1133 8.60713 24.0741L9.15664 23.766C9.07535 23.621 8.92714 23.5268 8.76213 23.5137L8.71253 24.1418ZM8.60725 24.0743C8.58495 24.0346 8.58415 23.9864 8.60504 23.946L9.16456 24.2355C9.24112 24.0876 9.23814 23.9111 9.15653 23.7658L8.60725 24.0743ZM8.60505 23.946C8.38174 24.3774 8.20999 24.7828 8.08221 25.184L8.68248 25.3752C8.79778 25.0132 8.95481 24.6408 9.16455 24.2356L8.60505 23.946ZM8.08213 25.1842L8.07831 25.1962L8.67873 25.387L8.68255 25.375L8.08213 25.1842ZM8.07822 25.1965C7.98808 25.4811 8.06924 25.7794 8.286 25.9823L8.7165 25.5223C8.6738 25.4824 8.66326 25.4358 8.67882 25.3867L8.07822 25.1965ZM8.28571 25.982C8.5044 26.1872 8.81024 26.2499 9.0923 26.143L8.86889 25.5539C8.81434 25.5746 8.76193 25.565 8.71678 25.5226L8.28571 25.982ZM9.09186 26.1431C11.5403 25.2186 14.0594 24.727 16.3744 24.7171L16.3717 24.0871C13.9729 24.0974 11.3794 24.606 8.86933 25.5537L9.09186 26.1431ZM16.3717 24.7171C18.6883 24.727 21.2073 25.2186 23.6558 26.1432L23.8784 25.5538C21.3682 24.606 18.7748 24.0974 16.3744 24.0871L16.3717 24.7171ZM23.656 26.1433C23.9373 26.2494 24.243 26.1875 24.462 25.982L24.0309 25.5226C23.9861 25.5647 23.9335 25.5746 23.8783 25.5538L23.656 26.1433ZM24.4618 25.9822C24.6784 25.7793 24.7595 25.4811 24.6694 25.1964L24.0688 25.3864C24.0844 25.4359 24.0738 25.4825 24.0311 25.5224L24.4618 25.9822ZM24.67 25.1981L24.6662 25.1861L24.0645 25.3727L24.0682 25.3847L24.67 25.1981ZM24.6655 25.1837C24.5377 24.7828 24.366 24.3774 24.1428 23.946L23.5832 24.2355C23.7929 24.6408 23.9499 25.0133 24.0652 25.375L24.6655 25.1837ZM24.1426 23.9456C24.1636 23.9861 24.1627 24.0344 24.1406 24.074L23.5909 23.7662C23.5096 23.9113 23.5065 24.0878 23.5834 24.2359L24.1426 23.9456ZM24.1405 24.0741C24.1183 24.1137 24.0785 24.1384 24.0353 24.1418L23.9857 23.5137C23.8211 23.5267 23.6725 23.6207 23.591 23.766L24.1405 24.0741ZM24.035 24.1418C24.1985 24.129 24.3511 24.1042 24.4998 24.0651L24.3396 23.4558C24.231 23.4844 24.1159 23.5035 23.9859 23.5137L24.035 24.1418ZM24.4996 24.0652C25.4825 23.8075 26.262 22.9386 26.5994 21.8534L25.9978 21.6664C25.7083 22.5977 25.0633 23.2661 24.3398 23.4558L24.4996 24.0652ZM26.1896 21.4644L25.4728 21.7288L25.6908 22.3199L26.4076 22.0554L26.1896 21.4644ZM25.4729 21.7288C25.5323 21.7069 25.6005 21.7303 25.6334 21.7872L25.0882 22.1029C25.2098 22.3127 25.4644 22.4033 25.6907 22.3199L25.4729 21.7288ZM25.6334 21.7872C25.6667 21.8447 25.6529 21.9174 25.6025 21.9588L25.2028 21.4719C25.0154 21.6257 24.9663 21.8925 25.0882 22.1029L25.6334 21.7872ZM25.6024 21.9589C26.389 21.3137 26.7853 20.2612 26.6585 19.2677L26.0336 19.3474C26.1339 20.1337 25.8157 20.9691 25.2029 21.4718L25.6024 21.9589ZM26.0917 19.1218C25.8609 19.4378 25.5715 19.7106 25.2402 19.9228L25.5799 20.4533C25.9771 20.1989 26.3238 19.8722 26.6005 19.4933L26.0917 19.1218ZM25.2401 19.9228C25.2932 19.8888 25.3625 19.8968 25.4064 19.942L24.9544 20.3809C25.1191 20.5505 25.3809 20.5808 25.58 20.4533L25.2401 19.9228ZM25.4069 19.9425C25.4516 19.9887 25.4573 20.0607 25.4201 20.1135L24.9048 19.751C24.768 19.9456 24.7886 20.2094 24.954 20.3804L25.4069 19.9425ZM25.4199 20.1138C26.1834 19.031 26.4919 17.6687 26.2884 16.3705L25.666 16.4681C25.8445 17.6071 25.5728 18.8037 24.905 19.7507L25.4199 20.1138ZM25.7059 16.2592C25.3291 16.8978 24.6553 17.2909 24.2139 17.4894L24.4724 18.064C24.9531 17.8477 25.772 17.387 26.2485 16.5793L25.7059 16.2592ZM24.2139 17.4894C23.7368 17.7041 23.2266 17.8487 22.7075 17.9951L22.8785 18.6015C23.3902 18.4571 23.9457 18.301 24.4724 18.064L24.2139 17.4894ZM22.7074 17.9951C22.4005 18.0818 22.0731 18.174 21.7583 18.2818L21.9623 18.8778C22.258 18.7766 22.5686 18.6889 22.8785 18.6014L22.7074 17.9951ZM21.7581 18.2818C21.5886 18.34 21.3529 18.4234 21.1652 18.5825L21.5723 19.0632C21.6578 18.9908 21.7844 18.9388 21.9625 18.8778L21.7581 18.2818ZM21.1653 18.5823C21.0832 18.6518 21.0138 18.7323 20.9533 18.8237L21.4786 19.1715C21.5101 19.1239 21.5408 19.0899 21.5721 19.0634L21.1653 18.5823ZM20.9531 18.8239C20.9819 18.7803 21.0314 18.7591 21.0795 18.765L21.0028 19.3904C21.1881 19.4131 21.3736 19.3302 21.4787 19.1713L20.9531 18.8239ZM21.0802 18.7651C21.1294 18.7713 21.1724 18.8049 21.1894 18.8542L20.5941 19.0602C20.6563 19.2399 20.8154 19.367 21.0021 19.3903L21.0802 18.7651ZM21.1894 18.8541C20.8648 17.9167 20.7963 17.0562 20.9661 16.2896L20.351 16.1533C20.1511 17.0559 20.2395 18.0363 20.5941 19.0603L21.1894 18.8541ZM20.9661 16.2896C21.2256 15.1188 22.0836 14.1056 23.2021 13.6518L22.9652 13.068C21.6559 13.5993 20.6556 14.7791 20.3511 16.1533L20.9661 16.2896ZM23.2021 13.6518C24.2481 13.2272 25.3981 13.2885 26.5946 13.3573L26.6308 12.7284C25.4613 12.6611 24.1648 12.5811 22.9651 13.068L23.2021 13.6518ZM26.5946 13.3573C27.6013 13.4153 28.9524 13.499 30.0975 13.003L29.8471 12.4249C28.8633 12.851 27.6692 12.7882 26.6308 12.7284L26.5946 13.3573ZM30.0976 13.0029C31.2718 12.4939 31.8997 11.4336 31.8931 10.5125L31.2631 10.5171C31.2678 11.1644 30.8093 12.0078 29.847 12.4249L30.0976 13.0029ZM31.3764 10.2729C30.9025 10.6681 30.3478 10.9672 29.7556 11.1449L29.9367 11.7483C30.6107 11.546 31.241 11.2061 31.7799 10.7567L31.3764 10.2729ZM29.7564 11.1447C29.8112 11.1284 29.8727 11.1495 29.9055 11.201L29.3743 11.5397C29.4947 11.7284 29.7248 11.8114 29.9359 11.7486L29.7564 11.1447ZM29.9054 11.2008C29.9382 11.2522 29.9323 11.3193 29.8917 11.364L29.425 10.9409C29.2751 11.1062 29.2541 11.3514 29.3744 11.5399L29.9054 11.2008ZM29.8918 11.364C30.8653 10.2902 31.5439 8.95487 31.8449 7.54155L31.2287 7.4103C30.9506 8.71597 30.323 9.9503 29.425 10.9409L29.8918 11.364ZM31.3129 7.25443C30.8976 7.67431 30.3403 7.95471 29.7564 8.02391L29.8305 8.64953C30.5619 8.56286 31.2494 8.21455 31.7608 7.69742L31.3129 7.25443ZM29.7586 8.02365C29.8121 8.0177 29.8688 8.04632 29.8936 8.10286L29.3167 8.35613C29.4058 8.55895 29.6157 8.67346 29.8283 8.64979L29.7586 8.02365ZM29.8936 8.10286C29.9178 8.15805 29.9024 8.22199 29.8574 8.25999L29.4506 7.77895C29.2836 7.9202 29.2283 8.15465 29.3167 8.35613L29.8936 8.10286ZM29.8573 8.26012C31.0321 7.26785 31.7895 5.81528 31.9457 4.29477L31.319 4.23037C31.1792 5.59069 30.4994 6.8931 29.4508 7.77882L29.8573 8.26012ZM31.427 4.02372C31.0651 4.33483 30.6123 4.53782 30.1363 4.59587L30.2126 5.22123C30.8144 5.14783 31.3832 4.89225 31.8377 4.50142L31.427 4.02372ZM30.1365 4.59585C30.1886 4.58953 30.2408 4.61454 30.268 4.66286L29.7189 4.97179C29.8183 5.1485 30.0145 5.2453 30.2125 5.22125L30.1365 4.59585ZM30.268 4.66286C30.2953 4.71146 30.2897 4.77094 30.256 4.81303L29.7642 4.4193C29.6384 4.57639 29.6193 4.79481 29.7189 4.97179L30.268 4.66286ZM30.2556 4.81357C31.1194 3.73939 31.4752 2.29891 31.2332 0.95175L30.6132 1.06314C30.8235 2.23391 30.5123 3.48909 29.7646 4.41875L30.2556 4.81357ZM30.657 0.839108C29.6727 2.39577 27.5565 4.31983 22.9769 5.1598L23.0906 5.77947C27.8183 4.91232 30.0985 2.90119 31.1894 1.17578L30.657 0.839108ZM22.977 5.1598C22.7079 5.20911 22.4325 5.25528 22.1636 5.30037L22.2678 5.9217C22.5359 5.87675 22.816 5.82979 23.0905 5.77948L22.977 5.1598ZM22.1636 5.30038C21.0699 5.48384 19.8877 5.68021 18.8292 6.16722L19.0925 6.73955C20.0616 6.29371 21.1582 6.10783 22.2678 5.9217L22.1636 5.30038ZM18.8292 6.16721C17.6817 6.69504 16.3401 7.8258 16.241 9.43437L16.8698 9.4731C16.9478 8.20735 18.0303 7.22812 19.0925 6.73956L18.8292 6.16721ZM16.241 9.43426C16.2455 9.3621 16.3052 9.30853 16.3739 9.30853V9.93853C16.6349 9.93853 16.8535 9.73631 16.8698 9.47321L16.241 9.43426ZM16.3739 9.30853C16.4423 9.30853 16.5023 9.3619 16.5067 9.43456L15.8779 9.47291C15.8939 9.73651 16.1131 9.93853 16.3739 9.93853V9.30853ZM16.5067 9.43435C16.4075 7.82581 15.066 6.69505 13.9185 6.16721L13.6553 6.73956C14.7174 7.22812 15.7998 8.20734 15.8779 9.47312L16.5067 9.43435ZM13.9185 6.16722C12.86 5.68021 11.6779 5.48384 10.584 5.30037L10.4798 5.9217C11.5896 6.10783 12.6862 6.29371 13.6552 6.73955L13.9185 6.16722ZM10.584 5.30037C10.3151 5.25529 10.0399 5.20911 9.77071 5.15979L9.65718 5.77948C9.93182 5.82979 10.2117 5.87674 10.4798 5.9217L10.584 5.30037ZM9.77077 5.1598C5.1912 4.31983 3.07489 2.39576 2.09076 0.839118L1.55825 1.17577C2.64908 2.90119 4.92941 4.91232 9.65711 5.77947L9.77077 5.1598ZM1.51447 0.95175C1.27246 2.29891 1.62828 3.73938 2.49205 4.81356L2.98301 4.41877C2.23544 3.4891 1.92422 2.23391 2.13454 1.06314L1.51447 0.95175ZM2.492 4.8135C2.45766 4.77077 2.45266 4.71111 2.47957 4.66316L3.02896 4.97149C3.12793 4.79516 3.10983 4.57656 2.98306 4.41883L2.492 4.8135ZM2.47957 4.66316C2.50686 4.61454 2.55946 4.5896 2.61102 4.59582L2.53544 5.22128C2.73365 5.24523 2.92963 5.14849 3.02896 4.97149L2.47957 4.66316ZM2.61137 4.59587C2.13546 4.53782 1.68257 4.33483 1.32072 4.02372L0.909992 4.50142C1.36455 4.89225 1.93331 5.14783 2.53509 5.22123L2.61137 4.59587ZM0.802007 4.29477C0.958254 5.81529 1.71575 7.26784 2.89033 8.2601L3.29689 7.77884C2.2484 6.8931 1.56849 5.59068 1.42871 4.23037L0.802007 4.29477ZM2.89055 8.26029C2.84524 8.22208 2.82998 8.15785 2.85413 8.10286L3.43097 8.35613C3.51935 8.15485 3.46442 7.9201 3.29666 7.77865L2.89055 8.26029ZM2.85413 8.10286C2.8789 8.04643 2.93565 8.01772 2.989 8.02364L2.91947 8.64979C3.13238 8.67344 3.34197 8.55884 3.43097 8.35613L2.85413 8.10286ZM2.99131 8.02391C2.40746 7.95471 1.85009 7.67431 1.43474 7.2544L0.98684 7.69745C1.49834 8.21455 2.18587 8.56286 2.91716 8.64953L2.99131 8.02391ZM0.902705 7.54157C1.20383 8.95487 1.88245 10.2902 2.85596 11.364L3.3227 10.9409C2.42468 9.9503 1.79707 8.71597 1.51887 7.41028L0.902705 7.54157ZM2.85579 11.3638C2.81532 11.3191 2.80946 11.2524 2.84215 11.2011L3.37345 11.5396C3.49347 11.3513 3.47252 11.1064 3.32287 10.9411L2.85579 11.3638ZM2.84241 11.2007C2.87483 11.1499 2.9359 11.1282 2.99165 11.1448L2.81146 11.7485C3.02352 11.8118 3.25325 11.7276 3.37319 11.54L2.84241 11.2007ZM2.99211 11.1449C2.39986 10.9672 1.8452 10.6681 1.37122 10.2729L0.967756 10.7567C1.50668 11.2061 2.13689 11.546 2.81101 11.7483L2.99211 11.1449ZM0.854495 10.5125C0.847869 11.4337 1.47594 12.4939 2.65009 13.0029L2.90066 12.4249C1.93836 12.0077 1.47982 11.1644 1.48448 10.5171L0.854495 10.5125ZM2.65012 13.0029C3.79522 13.4992 5.14644 13.4153 6.15312 13.3573L6.11686 12.7284C5.07842 12.7882 3.88435 12.8512 2.90063 12.4249L2.65012 13.0029Z" fill="#FFCE4B"/>
<path fill-rule="evenodd" clip-rule="evenodd" d="M16.3739 13.2769L14.0991 17.5079H18.6486L16.3739 13.2769Z" fill="#BC8A6A"/>
<path fill-rule="evenodd" clip-rule="evenodd" d="M16.3739 13.2768L18.6486 17.5078H14.0991L16.3739 13.2768ZM13.6395 17.7816C13.6725 17.8361 13.7317 17.8695 13.7956 17.8695H18.952C19.016 17.8695 19.0752 17.8361 19.1081 17.7816C19.1411 17.7271 19.1427 17.6595 19.1126 17.6034L16.5344 12.8078C16.5027 12.749 16.441 12.7123 16.3739 12.7123C16.3067 12.7123 16.2451 12.749 16.2133 12.8078L13.6352 17.6034C13.605 17.6595 13.6067 17.7271 13.6395 17.7816Z" fill="#BC8A6A"/>
<path fill-rule="evenodd" clip-rule="evenodd" d="M19.6615 21.5526C17.4129 20.8681 14.9497 20.9094 12.7261 21.6689L12.6078 21.3269C14.9035 20.5427 17.4463 20.4999 19.768 21.2068L19.6615 21.5526ZM21 20.9682C18.06 19.6454 14.6878 19.6454 11.7478 20.9682C11.3588 21.1428 11.0669 21.4562 10.9669 21.8064C10.8989 22.0447 10.9279 22.2739 11.0484 22.4514C11.3465 22.8929 12.0022 23.0342 12.5738 22.7804C14.9882 21.6942 17.7587 21.6941 20.174 22.7805C20.7456 23.0343 21.4012 22.8928 21.699 22.4518C21.8199 22.2738 21.8488 22.0446 21.7808 21.8064C21.6808 21.4562 21.3889 21.1428 21 20.9682Z" fill="#A91D49"/>
<path fill-rule="evenodd" clip-rule="evenodd" d="M21.699 22.4518C21.4012 22.8928 20.7456 23.0342 20.174 22.7805C17.7587 21.6941 14.9882 21.6942 12.5738 22.7804C12.0022 23.0341 11.3466 22.8929 11.0485 22.4514C10.9279 22.2738 10.8989 22.0447 10.967 21.8063C11.067 21.4561 11.3587 21.1427 11.7478 20.9682C14.6878 19.6454 18.06 19.6454 21 20.9682C21.3889 21.1427 21.6808 21.4561 21.7808 21.8063C21.8488 22.0446 21.8199 22.2737 21.699 22.4518ZM11.5978 20.6386C11.1125 20.8565 10.7458 21.2561 10.6168 21.7077C10.519 22.0503 10.5652 22.3861 10.7465 22.6533C11.1418 23.2387 11.9912 23.4353 12.7231 23.1102C15.0432 22.0663 17.7045 22.0663 20.0246 23.1102C20.0249 23.1103 20.0252 23.1104 20.0255 23.1106C20.2629 23.216 20.5129 23.2666 20.7558 23.2666C21.2605 23.2666 21.7343 23.0486 22.001 22.6536C22.1825 22.3861 22.2287 22.0502 22.1309 21.7076C22.002 21.2561 21.6353 20.8565 21.15 20.6386C18.1147 19.273 14.633 19.273 11.5978 20.6386Z" fill="#A91D49"/>
<path fill-rule="evenodd" clip-rule="evenodd" d="M12.6078 21.3269L12.7261 21.6689C14.9498 20.9094 17.4129 20.8681 19.6615 21.5526L19.7682 21.2068C17.4464 20.5 14.9035 20.5427 12.6078 21.3269Z" fill="#FF9A8F"/>
<path fill-rule="evenodd" clip-rule="evenodd" d="M11.1979 11.8451C10.4946 11.8451 9.92228 11.2764 9.92228 10.5774C9.92228 9.87821 10.4946 9.30953 11.1979 9.30953C11.9013 9.30953 12.4737 9.87821 12.4737 10.5774C12.4737 11.2764 11.9013 11.8451 11.1979 11.8451ZM12.5011 9.28612C11.9192 8.83533 11.2684 8.69303 10.4783 8.5538C9.63189 8.40462 8.53409 8.17 7.55056 7.67401C7.53601 7.66669 7.5119 7.65548 7.48179 7.64138C7.38654 7.5968 7.30402 7.55657 7.23279 7.51978C7.39318 8.64222 7.6812 9.85443 8.40309 10.7982C8.96295 11.5302 9.8465 12.0468 10.8269 12.2159C11.86 12.394 12.9049 12.1272 13.9154 11.869L14.0026 11.8468C13.9722 11.7276 13.8964 11.4814 13.7078 10.9803L13.6955 10.947C13.5052 10.4323 13.2102 9.96275 12.8419 9.58917V9.58908C12.7347 9.48014 12.6201 9.37824 12.5011 9.28612Z" fill="#BC8A6A"/>
<path fill-rule="evenodd" clip-rule="evenodd" d="M13.6954 10.9472L13.7079 10.9803C13.8964 11.4814 13.9722 11.7278 14.0025 11.8468L13.9153 11.869C12.9048 12.1273 11.86 12.3941 10.8269 12.216C9.84645 12.0469 8.9629 11.5302 8.40304 10.7983C7.68115 9.85455 7.39313 8.64233 7.23274 7.51989C7.30406 7.55669 7.38649 7.59683 7.48183 7.64149C7.51194 7.6556 7.53596 7.66681 7.55051 7.67413C8.53413 8.17003 9.63184 8.40473 10.4784 8.55382C11.2685 8.69305 11.9191 8.83545 12.5012 9.28623C12.62 9.37827 12.7346 9.48016 12.842 9.58911V9.5892C13.2102 9.96277 13.5052 10.4325 13.6954 10.9472ZM6.97528 6.94425C6.87548 6.95618 6.80443 7.04632 6.81653 7.14541C6.81653 7.14559 6.81653 7.14568 6.81662 7.14577C6.97237 8.42553 7.24829 9.88628 8.11338 11.017C8.72828 11.821 9.69461 12.3878 10.7647 12.5724C11.022 12.6167 11.2778 12.6359 11.5322 12.6359C12.3751 12.6359 13.2011 12.4249 14.0059 12.2192L14.2371 12.1605C14.2401 12.1596 14.243 12.1588 14.2459 12.1579C14.2975 12.1421 14.3392 12.1063 14.3634 12.0572C14.4038 11.9757 14.442 11.8985 14.0487 10.8537L14.0369 10.8226C13.8292 10.26 13.5059 9.74615 13.102 9.33623C12.9834 9.2158 12.8565 9.10297 12.7249 9.00108C12.078 8.50003 11.3535 8.34081 10.5418 8.19769C9.71999 8.05295 8.65613 7.82611 7.71509 7.35155C7.69853 7.34332 7.67124 7.33039 7.63694 7.3143C7.31798 7.16494 7.20363 7.09234 7.16633 7.05717C7.13658 6.9824 7.05898 6.93394 6.97528 6.94425Z" fill="#BC8A6A"/>
<path fill-rule="evenodd" clip-rule="evenodd" d="M21.534 9.30953C22.2374 9.30953 22.8097 9.87821 22.8097 10.5773C22.8097 11.2764 22.2374 11.8451 21.534 11.8451C20.8306 11.8451 20.2583 11.2764 20.2583 10.5773C20.2583 9.87821 20.8306 9.30953 21.534 9.30953ZM18.8324 11.869C19.843 12.1272 20.8879 12.3941 21.9208 12.2159C22.9013 12.0468 23.7848 11.5302 24.3446 10.7982C25.0667 9.85434 25.3545 8.64222 25.5149 7.51978C25.4438 7.55657 25.3613 7.59671 25.266 7.64129C25.2358 7.65548 25.2118 7.66669 25.1972 7.67401C24.2136 8.17 23.1159 8.40462 22.2693 8.5538C21.4792 8.69303 20.8285 8.83533 20.2465 9.28612C20.1278 9.37824 20.013 9.48014 19.9057 9.58917C19.5376 9.96275 19.2425 10.4323 19.0523 10.9471L19.0399 10.9802C18.8513 11.4813 18.7755 11.7276 18.7451 11.8467L18.8324 11.869Z" fill="#BC8A6A"/>
<path fill-rule="evenodd" clip-rule="evenodd" d="M19.0523 10.9473C19.2425 10.4325 19.5376 9.96279 19.9057 9.58922C20.013 9.48018 20.1278 9.37829 20.2465 9.28625C20.8285 8.83547 21.4792 8.69307 22.2693 8.55384C23.1159 8.40476 24.2136 8.17005 25.1972 7.67415C25.2118 7.66683 25.2358 7.65562 25.266 7.64142C25.3613 7.59676 25.4437 7.55671 25.5149 7.51991C25.3545 8.64235 25.0666 9.85448 24.3446 10.7984C23.7848 11.5302 22.9013 12.0469 21.9208 12.216C20.8879 12.3942 19.8429 12.1273 18.8324 11.869L18.7451 11.8468C18.7755 11.7278 18.8513 11.4814 19.0399 10.9804L19.0523 10.9473ZM18.5018 12.1579C18.5047 12.1589 18.5077 12.1597 18.5107 12.1605L18.7418 12.2192C19.5467 12.4249 20.3726 12.6359 21.2154 12.6359C21.4697 12.6359 21.7257 12.6167 21.9829 12.5724C23.0531 12.3879 24.0194 11.821 24.6344 11.0171C25.4995 9.88631 25.7753 8.42582 25.931 7.14616C25.931 7.14589 25.9311 7.14571 25.9311 7.14543C25.9432 7.04634 25.8721 6.95621 25.7724 6.94427C25.6888 6.93442 25.611 6.98242 25.5813 7.05719C25.5441 7.09236 25.4298 7.16496 25.1109 7.31423C25.0765 7.33041 25.0491 7.34325 25.0325 7.35166C24.0916 7.82613 23.0277 8.05297 22.2058 8.19772C21.3942 8.34084 20.6697 8.50005 20.0228 9.0011C19.8912 9.10308 19.7643 9.21583 19.6456 9.33625C19.2417 9.74617 18.9185 10.2601 18.7107 10.8227L18.6991 10.8537C18.3057 11.8985 18.3439 11.9757 18.3842 12.0572C18.4084 12.1063 18.4502 12.1421 18.5018 12.1579Z" fill="#BC8A6A"/>
<path fill-rule="evenodd" clip-rule="evenodd" d="M11.198 11.0277C10.9477 11.0277 10.745 10.8261 10.745 10.5774C10.745 10.3287 10.9477 10.1271 11.198 10.1271C11.4482 10.1271 11.6511 10.3287 11.6511 10.5774C11.6511 10.8261 11.4482 11.0277 11.198 11.0277ZM12.1098 10.5774C12.1098 10.0777 11.7007 9.67126 11.198 9.67126C10.6952 9.67126 10.2863 10.0777 10.2863 10.5774C10.2863 11.0771 10.6952 11.4835 11.198 11.4835C11.7007 11.4835 12.1098 11.0771 12.1098 10.5774Z" fill="#FEFEFE"/>
<path fill-rule="evenodd" clip-rule="evenodd" d="M10.2861 10.5773C10.2861 10.0777 10.6952 9.67121 11.1979 9.67121C11.7007 9.67121 12.1097 10.0777 12.1097 10.5773C12.1097 11.0769 11.7007 11.4834 11.1979 11.4834C10.6952 11.4834 10.2861 11.0769 10.2861 10.5773ZM11.1979 9.30957C10.4946 9.30957 9.92224 9.87825 9.92224 10.5773C9.92224 11.2764 10.4946 11.845 11.1979 11.845C11.9013 11.845 12.4736 11.2764 12.4736 10.5773C12.4736 9.87825 11.9013 9.30957 11.1979 9.30957Z" fill="#FEFEFE"/>
<path fill-rule="evenodd" clip-rule="evenodd" d="M11.1115 10.6301C11.0203 10.6301 10.9464 10.5563 10.9464 10.4651C10.9464 10.3739 11.0203 10.3 11.1115 10.3C11.2027 10.3 11.2766 10.3739 11.2766 10.4651C11.2766 10.5563 11.2027 10.6301 11.1115 10.6301ZM11.2481 10.1271C10.9702 10.1271 10.7449 10.3523 10.7449 10.6301C10.7449 10.9079 10.9702 11.1332 11.2481 11.1332C11.526 11.1332 11.7513 10.9079 11.7513 10.6301C11.7513 10.3523 11.526 10.1271 11.2481 10.1271Z" fill="#2B2A2A"/>
<path fill-rule="evenodd" clip-rule="evenodd" d="M11.075 10.2819C10.9929 10.2819 10.9264 10.348 10.9264 10.4296C10.9264 10.5112 10.9929 10.5773 11.075 10.5773C11.1571 10.5773 11.2237 10.5112 11.2237 10.4296C11.2237 10.348 11.1571 10.2819 11.075 10.2819Z" fill="#FEFEFE"/>
<path fill-rule="evenodd" clip-rule="evenodd" d="M21.5339 10.1271C21.7842 10.1271 21.987 10.3287 21.987 10.5774C21.987 10.8261 21.7842 11.0277 21.5339 11.0277C21.2838 11.0277 21.0809 10.8261 21.0809 10.5774C21.0809 10.3287 21.2838 10.1271 21.5339 10.1271ZM20.6222 10.5774C20.6222 11.0771 21.0312 11.4835 21.5339 11.4835C22.0368 11.4835 22.4458 11.0771 22.4458 10.5774C22.4458 10.0777 22.0368 9.67126 21.5339 9.67126C21.0312 9.67126 20.6222 10.0777 20.6222 10.5774Z" fill="#FEFEFE"/>
<path fill-rule="evenodd" clip-rule="evenodd" d="M22.4458 10.5773C22.4458 11.0769 22.0368 11.4834 21.534 11.4834C21.0312 11.4834 20.6222 11.0769 20.6222 10.5773C20.6222 10.0777 21.0312 9.67121 21.534 9.67121C22.0368 9.67121 22.4458 10.0777 22.4458 10.5773ZM21.534 11.845C22.2374 11.845 22.8097 11.2764 22.8097 10.5773C22.8097 9.87825 22.2374 9.30957 21.534 9.30957C20.8306 9.30957 20.2583 9.87825 20.2583 10.5773C20.2583 11.2764 20.8306 11.845 21.534 11.845Z" fill="#FEFEFE"/>
<path fill-rule="evenodd" clip-rule="evenodd" d="M21.4475 10.3C21.5387 10.3 21.6126 10.3738 21.6126 10.465C21.6126 10.5563 21.5387 10.6301 21.4475 10.6301C21.3563 10.6301 21.2824 10.5563 21.2824 10.465C21.2824 10.3738 21.3563 10.3 21.4475 10.3ZM21.5841 11.1332C21.862 11.1332 22.0872 10.908 22.0872 10.6301C22.0872 10.3523 21.862 10.1271 21.5841 10.1271C21.3061 10.1271 21.0808 10.3523 21.0808 10.6301C21.0808 10.908 21.3061 11.1332 21.5841 11.1332Z" fill="#2B2A2A"/>
<path fill-rule="evenodd" clip-rule="evenodd" d="M21.411 10.5773C21.4931 10.5773 21.5596 10.5112 21.5596 10.4296C21.5596 10.348 21.4931 10.2819 21.411 10.2819C21.3289 10.2819 21.2623 10.348 21.2623 10.4296C21.2623 10.5112 21.3289 10.5773 21.411 10.5773Z" fill="#FEFEFE"/>
</svg>
